<svg id="Layer_1" data-name="Layer 1" xmlns="http://www.w3.org/2000/svg" viewBox="0 0 1690.27 672.88"><path d="M995.08,166a12.18,12.18,0,0,1,6.28,1.4,7.77,7.77,0,0,1,3.35,4.53,35.06,35.06,0,0,1,0,16.79,7.77,7.77,0,0,1-3.35,4.53,14.81,14.81,0,0,1-12.57,0,7.79,7.79,0,0,1-3.33-4.53,35.74,35.74,0,0,1,0-16.79,7.79,7.79,0,0,1,3.33-4.53A12.21,12.21,0,0,1,995.08,166Zm0,4.79a5,5,0,0,0-2.2.44,3.12,3.12,0,0,0-1.39,1.47,8.8,8.8,0,0,0-.74,2.9,50.64,50.64,0,0,0,0,9.43,8.87,8.87,0,0,0,.74,2.92,3.12,3.12,0,0,0,1.39,1.47,5,5,0,0,0,2.2.44,5.15,5.15,0,0,0,2.25-.44,3.21,3.21,0,0,0,1.44-1.47,8.82,8.82,0,0,0,.76-2.92,50.64,50.64,0,0,0,0-9.43,8.75,8.75,0,0,0-.76-2.9,3.21,3.21,0,0,0-1.44-1.47A5.15,5.15,0,0,0,995,170.83Z" transform="translate(-151.42 -166.04)"/><path d="M1021.26,166.6v27.53h-6.06V174.62c0-.51,0-1,0-1.5a8.59,8.59,0,0,1,.2-1.49l-6.55,1.67-.71-4,7-2.75Z" transform="translate(-151.42 -166.04)"/><path d="M1037.51,166a12.21,12.21,0,0,1,6.29,1.4,7.86,7.86,0,0,1,3.35,4.53,35.06,35.06,0,0,1,0,16.79,7.86,7.86,0,0,1-3.35,4.53,14.81,14.81,0,0,1-12.57,0,7.71,7.71,0,0,1-3.33-4.53,35.74,35.74,0,0,1,0-16.79,7.71,7.71,0,0,1,3.33-4.53A12.2,12.2,0,0,1,1037.51,166Zm0,4.79a4.88,4.88,0,0,0-2.19.44,3.13,3.13,0,0,0-1.4,1.47,9.33,9.33,0,0,0-.74,2.9,50.64,50.64,0,0,0,0,9.43,9.4,9.4,0,0,0,.74,2.92,3.13,3.13,0,0,0,1.4,1.47,4.88,4.88,0,0,0,2.19.44,5.17,5.17,0,0,0,2.26-.44,3.19,3.19,0,0,0,1.43-1.47,8.58,8.58,0,0,0,.76-2.92,50.64,50.64,0,0,0,0-9.43,8.52,8.52,0,0,0-.76-2.9,3.19,3.19,0,0,0-1.43-1.47A5.17,5.17,0,0,0,1037.47,170.83Z" transform="translate(-151.42 -166.04)"/><path d="M1062.69,166a12.18,12.18,0,0,1,6.28,1.4,7.83,7.83,0,0,1,3.36,4.53,35.39,35.39,0,0,1,0,16.79,7.83,7.83,0,0,1-3.36,4.53,14.79,14.79,0,0,1-12.56,0,7.76,7.76,0,0,1-3.34-4.53,36.09,36.09,0,0,1,0-16.79,7.76,7.76,0,0,1,3.34-4.53A12.18,12.18,0,0,1,1062.69,166Zm0,4.79a4.88,4.88,0,0,0-2.19.44,3.13,3.13,0,0,0-1.4,1.47,9.06,9.06,0,0,0-.74,2.9,50.64,50.64,0,0,0,0,9.43,9.12,9.12,0,0,0,.74,2.92,3.13,3.13,0,0,0,1.4,1.47,4.88,4.88,0,0,0,2.19.44,5.2,5.2,0,0,0,2.26-.44,3.24,3.24,0,0,0,1.43-1.47,8.82,8.82,0,0,0,.76-2.92,50.64,50.64,0,0,0,0-9.43,8.75,8.75,0,0,0-.76-2.9,3.24,3.24,0,0,0-1.43-1.47A5.2,5.2,0,0,0,1062.65,170.83Z" transform="translate(-151.42 -166.04)"/><path d="M1087.88,166a12.18,12.18,0,0,1,6.28,1.4,7.77,7.77,0,0,1,3.35,4.53,35.06,35.06,0,0,1,0,16.79,7.77,7.77,0,0,1-3.35,4.53,14.81,14.81,0,0,1-12.57,0,7.79,7.79,0,0,1-3.33-4.53,35.74,35.74,0,0,1,0-16.79,7.79,7.79,0,0,1,3.33-4.53A12.24,12.24,0,0,1,1087.88,166Zm0,4.79a5,5,0,0,0-2.2.44,3.12,3.12,0,0,0-1.39,1.47,9.06,9.06,0,0,0-.74,2.9,50.64,50.64,0,0,0,0,9.43,9.12,9.12,0,0,0,.74,2.92,3.12,3.12,0,0,0,1.39,1.47,5,5,0,0,0,2.2.44,5.15,5.15,0,0,0,2.25-.44,3.21,3.21,0,0,0,1.44-1.47,8.82,8.82,0,0,0,.76-2.92,50.64,50.64,0,0,0,0-9.43,8.75,8.75,0,0,0-.76-2.9,3.21,3.21,0,0,0-1.44-1.47A5.15,5.15,0,0,0,1087.84,170.83Z" transform="translate(-151.42 -166.04)"/><path d="M1113.06,166a12.21,12.21,0,0,1,6.29,1.4,7.81,7.81,0,0,1,3.35,4.53,35.06,35.06,0,0,1,0,16.79,7.81,7.81,0,0,1-3.35,4.53,14.81,14.81,0,0,1-12.57,0,7.71,7.71,0,0,1-3.33-4.53,35.74,35.74,0,0,1,0-16.79,7.71,7.71,0,0,1,3.33-4.53A12.2,12.2,0,0,1,1113.06,166Zm0,4.79a4.94,4.94,0,0,0-2.19.44,3.18,3.18,0,0,0-1.4,1.47,9.08,9.08,0,0,0-.73,2.9,50.64,50.64,0,0,0,0,9.43,9.15,9.15,0,0,0,.73,2.92,3.18,3.18,0,0,0,1.4,1.47,4.94,4.94,0,0,0,2.19.44,5.17,5.17,0,0,0,2.26-.44,3.21,3.21,0,0,0,1.44-1.47,8.84,8.84,0,0,0,.75-2.92,50.64,50.64,0,0,0,0-9.43,8.78,8.78,0,0,0-.75-2.9,3.21,3.21,0,0,0-1.44-1.47A5.17,5.17,0,0,0,1113,170.83Z" transform="translate(-151.42 -166.04)"/><path d="M1139.22,166.6v27.53h-6.07V174.62c0-.51,0-1,0-1.5a11.08,11.08,0,0,1,.2-1.49l-6.54,1.67-.72-4,7-2.75Z" transform="translate(-151.42 -166.04)"/><path d="M1155.49,166a12.18,12.18,0,0,1,6.28,1.4,7.77,7.77,0,0,1,3.35,4.53,35.06,35.06,0,0,1,0,16.79,7.77,7.77,0,0,1-3.35,4.53,14.81,14.81,0,0,1-12.57,0,7.79,7.79,0,0,1-3.33-4.53,35.74,35.74,0,0,1,0-16.79,7.79,7.79,0,0,1,3.33-4.53A12.21,12.21,0,0,1,1155.49,166Zm0,4.79a5,5,0,0,0-2.2.44,3.12,3.12,0,0,0-1.39,1.47,8.8,8.8,0,0,0-.74,2.9,50.64,50.64,0,0,0,0,9.43,8.87,8.87,0,0,0,.74,2.92,3.12,3.12,0,0,0,1.39,1.47,5,5,0,0,0,2.2.44,5.15,5.15,0,0,0,2.25-.44,3.21,3.21,0,0,0,1.44-1.47,8.82,8.82,0,0,0,.76-2.92,50.64,50.64,0,0,0,0-9.43,8.75,8.75,0,0,0-.76-2.9,3.21,3.21,0,0,0-1.44-1.47A5.15,5.15,0,0,0,1155.45,170.83Z" transform="translate(-151.42 -166.04)"/><path d="M1189.28,166a12.18,12.18,0,0,1,6.28,1.4,7.83,7.83,0,0,1,3.36,4.53,35.39,35.39,0,0,1,0,16.79,7.83,7.83,0,0,1-3.36,4.53,14.79,14.79,0,0,1-12.56,0,7.76,7.76,0,0,1-3.34-4.53,36.09,36.09,0,0,1,0-16.79,7.76,7.76,0,0,1,3.34-4.53A12.18,12.18,0,0,1,1189.28,166Zm0,4.79a5,5,0,0,0-2.2.44,3.12,3.12,0,0,0-1.39,1.47,9.06,9.06,0,0,0-.74,2.9,50.64,50.64,0,0,0,0,9.43,9.12,9.12,0,0,0,.74,2.92,3.12,3.12,0,0,0,1.39,1.47,5,5,0,0,0,2.2.44,5.12,5.12,0,0,0,2.25-.44,3.21,3.21,0,0,0,1.44-1.47,8.82,8.82,0,0,0,.76-2.92,50.64,50.64,0,0,0,0-9.43,8.75,8.75,0,0,0-.76-2.9,3.21,3.21,0,0,0-1.44-1.47A5.12,5.12,0,0,0,1189.24,170.83Z" transform="translate(-151.42 -166.04)"/><path d="M1215.45,166.6v27.53h-6.06V174.62c0-.51,0-1,0-1.5a8.59,8.59,0,0,1,.2-1.49l-6.55,1.67-.72-4,7-2.75Z" transform="translate(-151.42 -166.04)"/><path d="M1232.69,166.6v27.53h-6.06V174.62c0-.51,0-1,0-1.5a8.59,8.59,0,0,1,.2-1.49l-6.55,1.67-.71-4,7-2.75Z" transform="translate(-151.42 -166.04)"/><path d="M1248.92,166a12.18,12.18,0,0,1,6.28,1.4,7.77,7.77,0,0,1,3.35,4.53,35.06,35.06,0,0,1,0,16.79,7.77,7.77,0,0,1-3.35,4.53,14.81,14.81,0,0,1-12.57,0,7.79,7.79,0,0,1-3.33-4.53,36.09,36.09,0,0,1,0-16.79,7.79,7.79,0,0,1,3.33-4.53A12.24,12.24,0,0,1,1248.92,166Zm0,4.79a5,5,0,0,0-2.2.44,3.12,3.12,0,0,0-1.39,1.47,9.06,9.06,0,0,0-.74,2.9,50.64,50.64,0,0,0,0,9.43,9.12,9.12,0,0,0,.74,2.92,3.12,3.12,0,0,0,1.39,1.47,5,5,0,0,0,2.2.44,5.12,5.12,0,0,0,2.25-.44,3.21,3.21,0,0,0,1.44-1.47,8.82,8.82,0,0,0,.76-2.92,50.64,50.64,0,0,0,0-9.43,8.75,8.75,0,0,0-.76-2.9,3.21,3.21,0,0,0-1.44-1.47A5.12,5.12,0,0,0,1248.88,170.83Z" transform="translate(-151.42 -166.04)"/><path d="M1274.12,166a12.21,12.21,0,0,1,6.29,1.4,7.86,7.86,0,0,1,3.35,4.53,35.06,35.06,0,0,1,0,16.79,7.86,7.86,0,0,1-3.35,4.53,14.81,14.81,0,0,1-12.57,0,7.71,7.71,0,0,1-3.33-4.53,35.74,35.74,0,0,1,0-16.79,7.71,7.71,0,0,1,3.33-4.53A12.2,12.2,0,0,1,1274.12,166Zm0,4.79a4.91,4.91,0,0,0-2.19.44,3.13,3.13,0,0,0-1.4,1.47,9.33,9.33,0,0,0-.74,2.9,53,53,0,0,0,0,9.43,9.4,9.4,0,0,0,.74,2.92,3.13,3.13,0,0,0,1.4,1.47,4.91,4.91,0,0,0,2.19.44,5.17,5.17,0,0,0,2.26-.44,3.14,3.14,0,0,0,1.43-1.47,8.58,8.58,0,0,0,.76-2.92,50.64,50.64,0,0,0,0-9.43,8.52,8.52,0,0,0-.76-2.9,3.14,3.14,0,0,0-1.43-1.47A5.17,5.17,0,0,0,1274.08,170.83Z" transform="translate(-151.42 -166.04)"/><path d="M1299.28,166a12.21,12.21,0,0,1,6.29,1.4,7.86,7.86,0,0,1,3.35,4.53,35.06,35.06,0,0,1,0,16.79,7.86,7.86,0,0,1-3.35,4.53,14.81,14.81,0,0,1-12.57,0,7.71,7.71,0,0,1-3.33-4.53,35.74,35.74,0,0,1,0-16.79,7.71,7.71,0,0,1,3.33-4.53A12.2,12.2,0,0,1,1299.28,166Zm0,4.79a4.91,4.91,0,0,0-2.19.44,3.13,3.13,0,0,0-1.4,1.47,9.33,9.33,0,0,0-.74,2.9,53,53,0,0,0,0,9.43,9.4,9.4,0,0,0,.74,2.92,3.13,3.13,0,0,0,1.4,1.47,4.91,4.91,0,0,0,2.19.44,5.17,5.17,0,0,0,2.26-.44,3.14,3.14,0,0,0,1.43-1.47,8.58,8.58,0,0,0,.76-2.92,50.64,50.64,0,0,0,0-9.43,8.52,8.52,0,0,0-.76-2.9,3.14,3.14,0,0,0-1.43-1.47A5.17,5.17,0,0,0,1299.24,170.83Z" transform="translate(-151.42 -166.04)"/><path d="M1324.47,166a12.18,12.18,0,0,1,6.28,1.4,7.77,7.77,0,0,1,3.35,4.53,35.06,35.06,0,0,1,0,16.79,7.77,7.77,0,0,1-3.35,4.53,14.81,14.81,0,0,1-12.57,0,7.79,7.79,0,0,1-3.33-4.53,35.74,35.74,0,0,1,0-16.79,7.79,7.79,0,0,1,3.33-4.53A12.21,12.21,0,0,1,1324.47,166Zm0,4.79a5,5,0,0,0-2.2.44,3.12,3.12,0,0,0-1.39,1.47,9.06,9.06,0,0,0-.74,2.9,50.64,50.64,0,0,0,0,9.43,9.12,9.12,0,0,0,.74,2.92,3.12,3.12,0,0,0,1.39,1.47,5,5,0,0,0,2.2.44,5.15,5.15,0,0,0,2.25-.44,3.21,3.21,0,0,0,1.44-1.47,8.82,8.82,0,0,0,.76-2.92,50.64,50.64,0,0,0,0-9.43,8.75,8.75,0,0,0-.76-2.9,3.21,3.21,0,0,0-1.44-1.47A5.15,5.15,0,0,0,1324.43,170.83Z" transform="translate(-151.42 -166.04)"/><path d="M1350.66,166.6v27.53h-6.07V174.62c0-.51,0-1,0-1.5a9.68,9.68,0,0,1,.2-1.49l-6.54,1.67-.72-4,7-2.75Z" transform="translate(-151.42 -166.04)"/><path d="M1375.52,166a12.18,12.18,0,0,1,6.28,1.4,7.77,7.77,0,0,1,3.35,4.53,35.06,35.06,0,0,1,0,16.79,7.77,7.77,0,0,1-3.35,4.53,14.81,14.81,0,0,1-12.57,0,7.79,7.79,0,0,1-3.33-4.53,35.74,35.74,0,0,1,0-16.79,7.79,7.79,0,0,1,3.33-4.53A12.21,12.21,0,0,1,1375.52,166Zm0,4.79a5,5,0,0,0-2.2.44,3.12,3.12,0,0,0-1.39,1.47,8.8,8.8,0,0,0-.74,2.9,50.64,50.64,0,0,0,0,9.43,8.87,8.87,0,0,0,.74,2.92,3.12,3.12,0,0,0,1.39,1.47,5,5,0,0,0,2.2.44,5.15,5.15,0,0,0,2.25-.44,3.21,3.21,0,0,0,1.44-1.47,8.82,8.82,0,0,0,.76-2.92,50.64,50.64,0,0,0,0-9.43,8.75,8.75,0,0,0-.76-2.9,3.21,3.21,0,0,0-1.44-1.47A5.15,5.15,0,0,0,1375.48,170.83Z" transform="translate(-151.42 -166.04)"/><path d="M1401.7,166.6v27.53h-6.07V174.62c0-.51,0-1,0-1.5a9.68,9.68,0,0,1,.2-1.49l-6.54,1.67-.72-4,7-2.75Z" transform="translate(-151.42 -166.04)"/><path d="M1418.94,166.6v27.53h-6.06V174.62c0-.51,0-1,0-1.5a8.59,8.59,0,0,1,.2-1.49l-6.55,1.67-.72-4,7-2.75Z" transform="translate(-151.42 -166.04)"/><path d="M1435.17,166a12.24,12.24,0,0,1,6.29,1.4,7.86,7.86,0,0,1,3.35,4.53,35.39,35.39,0,0,1,0,16.79,7.86,7.86,0,0,1-3.35,4.53,14.81,14.81,0,0,1-12.57,0,7.76,7.76,0,0,1-3.34-4.53,36.09,36.09,0,0,1,0-16.79,7.76,7.76,0,0,1,3.34-4.53A12.18,12.18,0,0,1,1435.17,166Zm0,4.79a4.88,4.88,0,0,0-2.19.44,3.13,3.13,0,0,0-1.4,1.47,9.06,9.06,0,0,0-.74,2.9,50.64,50.64,0,0,0,0,9.43,9.12,9.12,0,0,0,.74,2.92,3.13,3.13,0,0,0,1.4,1.47,4.88,4.88,0,0,0,2.19.44,5.17,5.17,0,0,0,2.26-.44,3.24,3.24,0,0,0,1.43-1.47,8.82,8.82,0,0,0,.76-2.92,50.64,50.64,0,0,0,0-9.43,8.75,8.75,0,0,0-.76-2.9,3.24,3.24,0,0,0-1.43-1.47A5.17,5.17,0,0,0,1435.13,170.83Z" transform="translate(-151.42 -166.04)"/><path d="M1461.36,166.6v27.53h-6.06V174.62c0-.51,0-1,0-1.5a9.68,9.68,0,0,1,.2-1.49L1449,173.3l-.72-4,7-2.75Z" transform="translate(-151.42 -166.04)"/><path d="M1478.58,166.6v27.53h-6.07V174.62c0-.51,0-1,0-1.5a11.08,11.08,0,0,1,.2-1.49l-6.54,1.67-.72-4,7-2.75Z" transform="translate(-151.42 -166.04)"/><path d="M1495.82,166.6v27.53h-6.07V174.62c0-.51,0-1,0-1.5a11.08,11.08,0,0,1,.2-1.49l-6.54,1.67-.72-4,7-2.75Z" transform="translate(-151.42 -166.04)"/><path d="M1512.07,166a12.2,12.2,0,0,1,6.28,1.4,7.81,7.81,0,0,1,3.35,4.53,35.06,35.06,0,0,1,0,16.79,7.81,7.81,0,0,1-3.35,4.53,14.81,14.81,0,0,1-12.57,0,7.79,7.79,0,0,1-3.33-4.53,35.74,35.74,0,0,1,0-16.79,7.79,7.79,0,0,1,3.33-4.53A12.21,12.21,0,0,1,1512.07,166Zm0,4.79a5,5,0,0,0-2.2.44,3.12,3.12,0,0,0-1.39,1.47,8.8,8.8,0,0,0-.74,2.9,50.64,50.64,0,0,0,0,9.43,8.87,8.87,0,0,0,.74,2.92,3.12,3.12,0,0,0,1.39,1.47,5,5,0,0,0,2.2.44,5.15,5.15,0,0,0,2.25-.44,3.21,3.21,0,0,0,1.44-1.47,8.82,8.82,0,0,0,.76-2.92,50.64,50.64,0,0,0,0-9.43,8.75,8.75,0,0,0-.76-2.9,3.21,3.21,0,0,0-1.44-1.47A5.15,5.15,0,0,0,1512,170.83Z" transform="translate(-151.42 -166.04)"/><path d="M1545.89,166a12.18,12.18,0,0,1,6.28,1.4,7.81,7.81,0,0,1,3.35,4.53,35.06,35.06,0,0,1,0,16.79,7.81,7.81,0,0,1-3.35,4.53,14.81,14.81,0,0,1-12.57,0,7.79,7.79,0,0,1-3.33-4.53,35.74,35.74,0,0,1,0-16.79,7.79,7.79,0,0,1,3.33-4.53A12.21,12.21,0,0,1,1545.89,166Zm0,4.79a5,5,0,0,0-2.2.44,3.12,3.12,0,0,0-1.39,1.47,8.8,8.8,0,0,0-.74,2.9,50.64,50.64,0,0,0,0,9.43,8.87,8.87,0,0,0,.74,2.92,3.12,3.12,0,0,0,1.39,1.47,5,5,0,0,0,2.2.44,5.15,5.15,0,0,0,2.25-.44,3.21,3.21,0,0,0,1.44-1.47,8.82,8.82,0,0,0,.76-2.92,50.64,50.64,0,0,0,0-9.43,8.75,8.75,0,0,0-.76-2.9,3.21,3.21,0,0,0-1.44-1.47A5.15,5.15,0,0,0,1545.85,170.83Z" transform="translate(-151.42 -166.04)"/><path d="M1572.06,166.6v27.53H1566V174.62c0-.51,0-1,0-1.5a9.64,9.64,0,0,1,.19-1.49l-6.54,1.67-.72-4,7-2.75Z" transform="translate(-151.42 -166.04)"/><path d="M1589.3,166.6v27.53h-6.06V174.62c0-.51,0-1,0-1.5a9.68,9.68,0,0,1,.2-1.49l-6.54,1.67-.72-4,7-2.75Z" transform="translate(-151.42 -166.04)"/><path d="M1605.54,166a12.18,12.18,0,0,1,6.28,1.4,7.77,7.77,0,0,1,3.35,4.53,35.06,35.06,0,0,1,0,16.79,7.77,7.77,0,0,1-3.35,4.53,14.81,14.81,0,0,1-12.57,0,7.79,7.79,0,0,1-3.33-4.53,35.74,35.74,0,0,1,0-16.79,7.79,7.79,0,0,1,3.33-4.53A12.24,12.24,0,0,1,1605.54,166Zm0,4.79a5,5,0,0,0-2.2.44,3.12,3.12,0,0,0-1.39,1.47,9.06,9.06,0,0,0-.74,2.9,50.64,50.64,0,0,0,0,9.43,9.12,9.12,0,0,0,.74,2.92,3.12,3.12,0,0,0,1.39,1.47,5,5,0,0,0,2.2.44,5.15,5.15,0,0,0,2.25-.44,3.21,3.21,0,0,0,1.44-1.47,8.82,8.82,0,0,0,.76-2.92,50.64,50.64,0,0,0,0-9.43,8.75,8.75,0,0,0-.76-2.9,3.21,3.21,0,0,0-1.44-1.47A5.15,5.15,0,0,0,1605.5,170.83Z" transform="translate(-151.42 -166.04)"/><path d="M1631.72,166.6v27.53h-6.06V174.62c0-.51,0-1,0-1.5a8.59,8.59,0,0,1,.2-1.49l-6.55,1.67-.72-4,7-2.75Z" transform="translate(-151.42 -166.04)"/><path d="M1647.94,166a12.21,12.21,0,0,1,6.29,1.4,7.81,7.81,0,0,1,3.35,4.53,35.06,35.06,0,0,1,0,16.79,7.81,7.81,0,0,1-3.35,4.53,14.81,14.81,0,0,1-12.57,0,7.71,7.71,0,0,1-3.33-4.53,35.74,35.74,0,0,1,0-16.79,7.71,7.71,0,0,1,3.33-4.53A12.2,12.2,0,0,1,1647.94,166Zm0,4.79a4.91,4.91,0,0,0-2.19.44,3.13,3.13,0,0,0-1.4,1.47,9.08,9.08,0,0,0-.73,2.9,50.64,50.64,0,0,0,0,9.43,9.15,9.15,0,0,0,.73,2.92,3.13,3.13,0,0,0,1.4,1.47,4.91,4.91,0,0,0,2.19.44,5.17,5.17,0,0,0,2.26-.44,3.21,3.21,0,0,0,1.44-1.47,8.84,8.84,0,0,0,.75-2.92,50.64,50.64,0,0,0,0-9.43,8.78,8.78,0,0,0-.75-2.9,3.21,3.21,0,0,0-1.44-1.47A5.17,5.17,0,0,0,1647.9,170.83Z" transform="translate(-151.42 -166.04)"/><path d="M1674.14,166.6v27.53h-6.06V174.62c0-.51,0-1,0-1.5a9.64,9.64,0,0,1,.19-1.49l-6.54,1.67-.72-4,7-2.75Z" transform="translate(-151.42 -166.04)"/><path d="M1691.36,166.6v27.53h-6.06V174.62c0-.51,0-1,0-1.5a8.59,8.59,0,0,1,.2-1.49L1679,173.3l-.72-4,7-2.75Z" transform="translate(-151.42 -166.04)"/><path d="M1716.25,166a12.24,12.24,0,0,1,6.29,1.4,7.86,7.86,0,0,1,3.35,4.53,35.39,35.39,0,0,1,0,16.79,7.86,7.86,0,0,1-3.35,4.53,14.81,14.81,0,0,1-12.57,0,7.76,7.76,0,0,1-3.34-4.53,36.09,36.09,0,0,1,0-16.79,7.76,7.76,0,0,1,3.34-4.53A12.18,12.18,0,0,1,1716.25,166Zm0,4.79a4.88,4.88,0,0,0-2.19.44,3.13,3.13,0,0,0-1.4,1.47,9.06,9.06,0,0,0-.74,2.9,50.64,50.64,0,0,0,0,9.43,9.12,9.12,0,0,0,.74,2.92,3.13,3.13,0,0,0,1.4,1.47,4.88,4.88,0,0,0,2.19.44,5.17,5.17,0,0,0,2.26-.44,3.24,3.24,0,0,0,1.43-1.47,8.82,8.82,0,0,0,.76-2.92,50.64,50.64,0,0,0,0-9.43,8.75,8.75,0,0,0-.76-2.9,3.24,3.24,0,0,0-1.43-1.47A5.17,5.17,0,0,0,1716.21,170.83Z" transform="translate(-151.42 -166.04)"/><path d="M1745.8,168.85a12.14,12.14,0,0,1,5.85,2.71,7.78,7.78,0,0,1,2.3,5.13,27.94,27.94,0,0,1-.8,8.43,28.39,28.39,0,0,1-2.78,8,7.82,7.82,0,0,1-4.25,3.7,12.15,12.15,0,0,1-6.43,0,12.28,12.28,0,0,1-5.84-2.71,7.73,7.73,0,0,1-2.29-5.13,28.33,28.33,0,0,1,.82-8.42,28.85,28.85,0,0,1,2.76-8,7.81,7.81,0,0,1,4.23-3.71A12.16,12.16,0,0,1,1745.8,168.85Zm-1.06,4.67a4.87,4.87,0,0,0-2.24,0,3.12,3.12,0,0,0-1.67,1.14,8.79,8.79,0,0,0-1.34,2.67,41.2,41.2,0,0,0-1.23,4.57,44.33,44.33,0,0,0-.79,4.65,9.12,9.12,0,0,0,.1,3,3.14,3.14,0,0,0,1,1.74,4.92,4.92,0,0,0,2.05.9,5.15,5.15,0,0,0,2.3,0,3.2,3.2,0,0,0,1.72-1.13,8.9,8.9,0,0,0,1.36-2.69,42.86,42.86,0,0,0,1.22-4.55,41.16,41.16,0,0,0,.79-4.66,8.73,8.73,0,0,0-.12-3,3.22,3.22,0,0,0-1.09-1.75A5.08,5.08,0,0,0,1744.74,173.52Z" transform="translate(-151.42 -166.04)"/><path d="M1774.43,179.5,1763,204.56l-5.52-2.51,8.08-17.76c.21-.46.43-.91.66-1.34a8.25,8.25,0,0,1,.8-1.28l-6.65-1.19,1-3.89,7.53.4Z" transform="translate(-151.42 -166.04)"/><path d="M1792.24,190a12.19,12.19,0,0,1,4.22,4.87,7.89,7.89,0,0,1,0,5.63,35.5,35.5,0,0,1-10,13.5,7.85,7.85,0,0,1-5.39,1.64,14.86,14.86,0,0,1-10.1-7.48,7.72,7.72,0,0,1,0-5.62,35.78,35.78,0,0,1,10-13.5,7.78,7.78,0,0,1,5.37-1.66A12.32,12.32,0,0,1,1792.24,190Zm-2.88,3.83a4.91,4.91,0,0,0-2-1,3.18,3.18,0,0,0-2,.36,9,9,0,0,0-2.31,1.88,40.88,40.88,0,0,0-3,3.67,41.92,41.92,0,0,0-2.63,3.91,8.94,8.94,0,0,0-1.14,2.78,3.15,3.15,0,0,0,.24,2,4.89,4.89,0,0,0,1.5,1.66,5.1,5.1,0,0,0,2.08,1,3.24,3.24,0,0,0,2-.33,8.54,8.54,0,0,0,2.34-1.89,41.18,41.18,0,0,0,3-3.65,42.21,42.21,0,0,0,2.64-3.93,8.5,8.5,0,0,0,1.11-2.78,3.22,3.22,0,0,0-.27-2A5.15,5.15,0,0,0,1789.36,193.78Z" transform="translate(-151.42 -166.04)"/><path d="M1814.24,210.94a12.13,12.13,0,0,1,2.89,5.75,7.83,7.83,0,0,1-1.39,5.46,35.08,35.08,0,0,1-13,10.62,7.8,7.8,0,0,1-5.63.27,14.84,14.84,0,0,1-7.95-9.74,7.78,7.78,0,0,1,1.4-5.44,35.7,35.7,0,0,1,13-10.62,7.78,7.78,0,0,1,5.62-.29A12.22,12.22,0,0,1,1814.24,210.94Zm-3.74,3a4.93,4.93,0,0,0-1.72-1.43,3.22,3.22,0,0,0-2-.14,8.73,8.73,0,0,0-2.71,1.25,41.64,41.64,0,0,0-3.8,2.82,42.82,42.82,0,0,0-3.51,3.15,9,9,0,0,0-1.79,2.41,3.17,3.17,0,0,0-.26,2,4.82,4.82,0,0,0,1,2,5.05,5.05,0,0,0,1.76,1.47,3.21,3.21,0,0,0,2,.18,8.52,8.52,0,0,0,2.74-1.25,42.35,42.35,0,0,0,3.79-2.81,40.23,40.23,0,0,0,3.52-3.16,8.52,8.52,0,0,0,1.76-2.41,3.24,3.24,0,0,0,.24-2A5,5,0,0,0,1810.5,213.94Z" transform="translate(-151.42 -166.04)"/><path d="M1830.39,236.71a12.17,12.17,0,0,1,1.38,6.29,7.82,7.82,0,0,1-2.7,4.94,35.1,35.1,0,0,1-15.24,7.07,7.8,7.8,0,0,1-5.52-1.13,14.84,14.84,0,0,1-5.29-11.4,7.74,7.74,0,0,1,2.71-4.93,35.9,35.9,0,0,1,15.23-7.07,7.72,7.72,0,0,1,5.51,1.12A12.19,12.19,0,0,1,1830.39,236.71Zm-4.36,2a4.91,4.91,0,0,0-1.32-1.81,3.15,3.15,0,0,0-1.93-.64,8.77,8.77,0,0,0-2.94.55,39.65,39.65,0,0,0-4.38,1.79,41.7,41.7,0,0,0-4.18,2.18,9.15,9.15,0,0,0-2.33,1.89,3.19,3.19,0,0,0-.75,1.89,4.89,4.89,0,0,0,.53,2.18,5.19,5.19,0,0,0,1.34,1.86,3.28,3.28,0,0,0,2,.68,8.87,8.87,0,0,0,3-.54,42.14,42.14,0,0,0,4.36-1.78,42.88,42.88,0,0,0,4.2-2.19,8.55,8.55,0,0,0,2.3-1.91,3.23,3.23,0,0,0,.74-1.92A5.16,5.16,0,0,0,1826,238.69Z" transform="translate(-151.42 -166.04)"/><path d="M1839.64,265.71a12.09,12.09,0,0,1-.23,6.43,7.79,7.79,0,0,1-3.84,4.12,35.17,35.17,0,0,1-16.52,3.06,7.86,7.86,0,0,1-5.06-2.47,14.83,14.83,0,0,1-2.29-12.36,7.74,7.74,0,0,1,3.85-4.1,35.91,35.91,0,0,1,16.52-3.06,7.79,7.79,0,0,1,5.06,2.45A12.24,12.24,0,0,1,1839.64,265.71Zm-4.71.83a5,5,0,0,0-.83-2.08,3.18,3.18,0,0,0-1.71-1.1,9.12,9.12,0,0,0-3-.2,41.48,41.48,0,0,0-4.69.65,42.05,42.05,0,0,0-4.59,1.07,9.22,9.22,0,0,0-2.73,1.25,3.2,3.2,0,0,0-1.19,1.65,4.85,4.85,0,0,0,0,2.23,5.13,5.13,0,0,0,.85,2.14,3.1,3.1,0,0,0,1.71,1.14,8.62,8.62,0,0,0,3,.22,50.32,50.32,0,0,0,9.28-1.72,8.69,8.69,0,0,0,2.71-1.27,3.26,3.26,0,0,0,1.19-1.68A5.34,5.34,0,0,0,1834.93,266.54Z" transform="translate(-151.42 -166.04)"/><path d="M1841.69,294.67a12.21,12.21,0,0,1-1.4,6.29,7.86,7.86,0,0,1-4.53,3.35,35.1,35.1,0,0,1-16.8,0,7.86,7.86,0,0,1-4.52-3.35,14.81,14.81,0,0,1,0-12.57,7.71,7.71,0,0,1,4.52-3.33,35.78,35.78,0,0,1,16.8,0,7.71,7.71,0,0,1,4.53,3.33A12.2,12.2,0,0,1,1841.69,294.67Zm-4.79,0a4.91,4.91,0,0,0-.44-2.19A3.13,3.13,0,0,0,1835,291a9.33,9.33,0,0,0-2.9-.74,53,53,0,0,0-9.43,0,9.32,9.32,0,0,0-2.92.74,3.13,3.13,0,0,0-1.47,1.4,4.77,4.77,0,0,0-.44,2.19,5,5,0,0,0,.44,2.26,3.14,3.14,0,0,0,1.47,1.43,8.52,8.52,0,0,0,2.92.76,50.64,50.64,0,0,0,9.43,0,8.52,8.52,0,0,0,2.9-.76,3.14,3.14,0,0,0,1.47-1.43A5.17,5.17,0,0,0,1836.9,294.63Z" transform="translate(-151.42 -166.04)"/><path d="M1841.69,328.47a12.18,12.18,0,0,1-1.4,6.28,7.81,7.81,0,0,1-4.53,3.35,35.1,35.1,0,0,1-16.8,0,7.82,7.82,0,0,1-4.52-3.35,14.81,14.81,0,0,1,0-12.57,7.8,7.8,0,0,1,4.52-3.33,35.78,35.78,0,0,1,16.8,0,7.79,7.79,0,0,1,4.53,3.33A12.21,12.21,0,0,1,1841.69,328.47Zm-4.79,0a5,5,0,0,0-.44-2.2,3.12,3.12,0,0,0-1.47-1.39,8.8,8.8,0,0,0-2.9-.74,50.64,50.64,0,0,0-9.43,0,8.8,8.8,0,0,0-2.92.74,3.12,3.12,0,0,0-1.47,1.39,4.82,4.82,0,0,0-.44,2.2,5,5,0,0,0,.44,2.25,3.21,3.21,0,0,0,1.47,1.44,8.75,8.75,0,0,0,2.92.76,50.64,50.64,0,0,0,9.43,0,8.75,8.75,0,0,0,2.9-.76,3.21,3.21,0,0,0,1.47-1.44A5.15,5.15,0,0,0,1836.9,328.43Z" transform="translate(-151.42 -166.04)"/><path d="M1841.13,354.64H1813.6v-6.07h19.51c.5,0,1,0,1.5,0a11.08,11.08,0,0,1,1.49.2l-1.67-6.54,4-.72,2.75,7Z" transform="translate(-151.42 -166.04)"/><path d="M1841.69,370.9a12.21,12.21,0,0,1-1.4,6.29,7.86,7.86,0,0,1-4.53,3.35,35.1,35.1,0,0,1-16.8,0,7.86,7.86,0,0,1-4.52-3.35,14.81,14.81,0,0,1,0-12.57,7.71,7.71,0,0,1,4.52-3.33,35.78,35.78,0,0,1,16.8,0,7.71,7.71,0,0,1,4.53,3.33A12.2,12.2,0,0,1,1841.69,370.9Zm-4.79,0a4.91,4.91,0,0,0-.44-2.19,3.13,3.13,0,0,0-1.47-1.4,9.08,9.08,0,0,0-2.9-.73,50.64,50.64,0,0,0-9.43,0,9.08,9.08,0,0,0-2.92.73,3.13,3.13,0,0,0-1.47,1.4,4.77,4.77,0,0,0-.44,2.19,5,5,0,0,0,.44,2.26,3.21,3.21,0,0,0,1.47,1.44,8.77,8.77,0,0,0,2.92.75,50.64,50.64,0,0,0,9.43,0,8.78,8.78,0,0,0,2.9-.75,3.21,3.21,0,0,0,1.47-1.44A5.17,5.17,0,0,0,1836.9,370.86Z" transform="translate(-151.42 -166.04)"/><path d="M1841.69,396.07a12.21,12.21,0,0,1-1.4,6.29,7.86,7.86,0,0,1-4.53,3.35,35.1,35.1,0,0,1-16.8,0,7.86,7.86,0,0,1-4.52-3.35,14.81,14.81,0,0,1,0-12.57,7.71,7.71,0,0,1,4.52-3.33,35.78,35.78,0,0,1,16.8,0,7.71,7.71,0,0,1,4.53,3.33A12.18,12.18,0,0,1,1841.69,396.07Zm-4.79,0a4.88,4.88,0,0,0-.44-2.19,3.13,3.13,0,0,0-1.47-1.4,9.33,9.33,0,0,0-2.9-.74,50.64,50.64,0,0,0-9.43,0,9.32,9.32,0,0,0-2.92.74,3.13,3.13,0,0,0-1.47,1.4,4.75,4.75,0,0,0-.44,2.19,5,5,0,0,0,.44,2.26,3.19,3.19,0,0,0,1.47,1.43,8.75,8.75,0,0,0,2.92.76,50.64,50.64,0,0,0,9.43,0,8.75,8.75,0,0,0,2.9-.76,3.19,3.19,0,0,0,1.47-1.43A5.17,5.17,0,0,0,1836.9,396Z" transform="translate(-151.42 -166.04)"/><path d="M1841.13,422.25H1813.6v-6.07h19.51c.5,0,1,0,1.5,0a11.08,11.08,0,0,1,1.49.2l-1.67-6.54,4-.72,2.75,7Z" transform="translate(-151.42 -166.04)"/><path d="M1841.69,438.49a12.21,12.21,0,0,1-1.4,6.29,7.86,7.86,0,0,1-4.53,3.35,35.1,35.1,0,0,1-16.8,0,7.86,7.86,0,0,1-4.52-3.35,14.81,14.81,0,0,1,0-12.57,7.71,7.71,0,0,1,4.52-3.33,35.78,35.78,0,0,1,16.8,0,7.71,7.71,0,0,1,4.53,3.33A12.18,12.18,0,0,1,1841.69,438.49Zm-4.79,0a4.88,4.88,0,0,0-.44-2.19,3.13,3.13,0,0,0-1.47-1.4,9.33,9.33,0,0,0-2.9-.74,50.64,50.64,0,0,0-9.43,0,9.32,9.32,0,0,0-2.92.74,3.13,3.13,0,0,0-1.47,1.4,4.75,4.75,0,0,0-.44,2.19,5,5,0,0,0,.44,2.26,3.19,3.19,0,0,0,1.47,1.43,8.75,8.75,0,0,0,2.92.76,50.64,50.64,0,0,0,9.43,0,8.75,8.75,0,0,0,2.9-.76,3.19,3.19,0,0,0,1.47-1.43A5.17,5.17,0,0,0,1836.9,438.45Z" transform="translate(-151.42 -166.04)"/><path d="M1841.69,463.66a12.18,12.18,0,0,1-1.4,6.28,7.83,7.83,0,0,1-4.53,3.36,35.44,35.44,0,0,1-16.8,0,7.84,7.84,0,0,1-4.52-3.36,14.79,14.79,0,0,1,0-12.56A7.77,7.77,0,0,1,1819,454a36.13,36.13,0,0,1,16.8,0,7.76,7.76,0,0,1,4.53,3.34A12.18,12.18,0,0,1,1841.69,463.66Zm-4.79,0a4.88,4.88,0,0,0-.44-2.19A3.09,3.09,0,0,0,1835,460a9.06,9.06,0,0,0-2.9-.74,50.64,50.64,0,0,0-9.43,0,9.05,9.05,0,0,0-2.92.74,3.09,3.09,0,0,0-1.47,1.4,4.75,4.75,0,0,0-.44,2.19,5,5,0,0,0,.44,2.25,3.21,3.21,0,0,0,1.47,1.44,8.75,8.75,0,0,0,2.92.76,50.64,50.64,0,0,0,9.43,0,8.75,8.75,0,0,0,2.9-.76,3.21,3.21,0,0,0,1.47-1.44A5.12,5.12,0,0,0,1836.9,463.62Z" transform="translate(-151.42 -166.04)"/><path d="M1841.13,489.85H1813.6v-6.06h19.51c.5,0,1,0,1.5,0a8.59,8.59,0,0,1,1.49.2l-1.67-6.55,4-.71,2.75,7Z" transform="translate(-151.42 -166.04)"/><path d="M1841.69,514.7a12.21,12.21,0,0,1-1.4,6.29,7.86,7.86,0,0,1-4.53,3.35,35.1,35.1,0,0,1-16.8,0,7.86,7.86,0,0,1-4.52-3.35,14.81,14.81,0,0,1,0-12.57,7.71,7.71,0,0,1,4.52-3.33,35.78,35.78,0,0,1,16.8,0,7.71,7.71,0,0,1,4.53,3.33A12.18,12.18,0,0,1,1841.69,514.7Zm-4.79,0a4.88,4.88,0,0,0-.44-2.19,3.13,3.13,0,0,0-1.47-1.4,9.33,9.33,0,0,0-2.9-.74,50.64,50.64,0,0,0-9.43,0,9.32,9.32,0,0,0-2.92.74,3.13,3.13,0,0,0-1.47,1.4,4.75,4.75,0,0,0-.44,2.19,5,5,0,0,0,.44,2.26,3.19,3.19,0,0,0,1.47,1.43,8.75,8.75,0,0,0,2.92.76,50.64,50.64,0,0,0,9.43,0,8.75,8.75,0,0,0,2.9-.76,3.19,3.19,0,0,0,1.47-1.43A5.17,5.17,0,0,0,1836.9,514.66Z" transform="translate(-151.42 -166.04)"/><path d="M1841.13,540.88H1813.6v-6.07h19.51c.5,0,1,0,1.5,0a9.68,9.68,0,0,1,1.49.2l-1.67-6.54,4-.72,2.75,7Z" transform="translate(-151.42 -166.04)"/><path d="M1841.13,558.12H1813.6v-6.07h19.51c.5,0,1,0,1.5,0a11.08,11.08,0,0,1,1.49.2l-1.67-6.54,4-.72,2.75,7Z" transform="translate(-151.42 -166.04)"/><path d="M1841.69,574.38a12.21,12.21,0,0,1-1.4,6.29,7.86,7.86,0,0,1-4.53,3.35,35.1,35.1,0,0,1-16.8,0,7.86,7.86,0,0,1-4.52-3.35,14.81,14.81,0,0,1,0-12.57,7.71,7.71,0,0,1,4.52-3.33,35.78,35.78,0,0,1,16.8,0,7.71,7.71,0,0,1,4.53,3.33A12.2,12.2,0,0,1,1841.69,574.38Zm-4.79,0a4.88,4.88,0,0,0-.44-2.19,3.13,3.13,0,0,0-1.47-1.4,9.33,9.33,0,0,0-2.9-.74,50.64,50.64,0,0,0-9.43,0,9.32,9.32,0,0,0-2.92.74,3.13,3.13,0,0,0-1.47,1.4,4.75,4.75,0,0,0-.44,2.19,5,5,0,0,0,.44,2.26,3.19,3.19,0,0,0,1.47,1.43,8.52,8.52,0,0,0,2.92.76,50.64,50.64,0,0,0,9.43,0,8.52,8.52,0,0,0,2.9-.76,3.19,3.19,0,0,0,1.47-1.43A5.17,5.17,0,0,0,1836.9,574.34Z" transform="translate(-151.42 -166.04)"/><path d="M1841.13,600.54H1813.6v-6.06h19.51c.5,0,1,0,1.5,0a9.64,9.64,0,0,1,1.49.19l-1.67-6.54,4-.72,2.75,7Z" transform="translate(-151.42 -166.04)"/><path d="M1841.13,617.77H1813.6V611.7h19.51c.5,0,1,0,1.5,0a11.08,11.08,0,0,1,1.49.2l-1.67-6.54,4-.72,2.75,7Z" transform="translate(-151.42 -166.04)"/><path d="M1841.13,635H1813.6v-6.07h19.51c.5,0,1,0,1.5,0a11.08,11.08,0,0,1,1.49.2l-1.67-6.54,4-.72,2.75,7Z" transform="translate(-151.42 -166.04)"/><path d="M1841.69,651.26a12.18,12.18,0,0,1-1.4,6.28,7.83,7.83,0,0,1-4.53,3.36,35.44,35.44,0,0,1-16.8,0,7.84,7.84,0,0,1-4.52-3.36,14.79,14.79,0,0,1,0-12.56,7.77,7.77,0,0,1,4.52-3.34,36.13,36.13,0,0,1,16.8,0,7.76,7.76,0,0,1,4.53,3.34A12.18,12.18,0,0,1,1841.69,651.26Zm-4.79,0a4.88,4.88,0,0,0-.44-2.19,3.13,3.13,0,0,0-1.47-1.4,9.06,9.06,0,0,0-2.9-.74,50.64,50.64,0,0,0-9.43,0,9.05,9.05,0,0,0-2.92.74,3.13,3.13,0,0,0-1.47,1.4,4.75,4.75,0,0,0-.44,2.19,5.06,5.06,0,0,0,.44,2.26,3.24,3.24,0,0,0,1.47,1.43,8.75,8.75,0,0,0,2.92.76,50.64,50.64,0,0,0,9.43,0,8.75,8.75,0,0,0,2.9-.76,3.24,3.24,0,0,0,1.47-1.43A5.2,5.2,0,0,0,1836.9,651.22Z" transform="translate(-151.42 -166.04)"/><path d="M1841.69,685.05a12.21,12.21,0,0,1-1.4,6.29,7.86,7.86,0,0,1-4.53,3.35,35.1,35.1,0,0,1-16.8,0,7.86,7.86,0,0,1-4.52-3.35,14.81,14.81,0,0,1,0-12.57,7.71,7.71,0,0,1,4.52-3.33,35.78,35.78,0,0,1,16.8,0,7.71,7.71,0,0,1,4.53,3.33A12.18,12.18,0,0,1,1841.69,685.05Zm-4.79,0a4.88,4.88,0,0,0-.44-2.19,3.13,3.13,0,0,0-1.47-1.4,9.33,9.33,0,0,0-2.9-.74,50.64,50.64,0,0,0-9.43,0,9.32,9.32,0,0,0-2.92.74,3.13,3.13,0,0,0-1.47,1.4,4.75,4.75,0,0,0-.44,2.19,5,5,0,0,0,.44,2.26,3.19,3.19,0,0,0,1.47,1.43,8.75,8.75,0,0,0,2.92.76,50.64,50.64,0,0,0,9.43,0,8.75,8.75,0,0,0,2.9-.76,3.19,3.19,0,0,0,1.47-1.43A5.17,5.17,0,0,0,1836.9,685Z" transform="translate(-151.42 -166.04)"/><path d="M1841.13,711.23H1813.6v-6.06h19.51c.5,0,1,0,1.5,0a8.59,8.59,0,0,1,1.49.2l-1.67-6.55,4-.71,2.75,7Z" transform="translate(-151.42 -166.04)"/><path d="M1840.55,729.82,1813.08,728l.39-6,19.47,1.26c.5,0,1,.08,1.49.14a10,10,0,0,1,1.48.3l-1.25-6.64,4-.46,2.29,7.18Z" transform="translate(-151.42 -166.04)"/><path d="M1837.09,750.16a12.08,12.08,0,0,1-3,5.67,7.79,7.79,0,0,1-5.27,2,34.94,34.94,0,0,1-16.16-4.57,7.81,7.81,0,0,1-3.45-4.46,14.85,14.85,0,0,1,3.42-12.09,7.78,7.78,0,0,1,5.27-2A35.86,35.86,0,0,1,1834,739.3a7.74,7.74,0,0,1,3.45,4.44A12.16,12.16,0,0,1,1837.09,750.16Zm-4.59-1.34a4.75,4.75,0,0,0,.17-2.23,3.14,3.14,0,0,0-1-1.74,8.81,8.81,0,0,0-2.58-1.5,50.59,50.59,0,0,0-9.08-2.57,8.84,8.84,0,0,0-3-.08,3.08,3.08,0,0,0-1.8.94,4.91,4.91,0,0,0-1,2,5,5,0,0,0-.19,2.29,3.2,3.2,0,0,0,1,1.78,8.59,8.59,0,0,0,2.6,1.52,49.38,49.38,0,0,0,9.08,2.57,8.45,8.45,0,0,0,3,.06,3.15,3.15,0,0,0,1.81-1A5.06,5.06,0,0,0,1832.5,748.82Z" transform="translate(-151.42 -166.04)"/><path d="M1825.19,778.2a12.2,12.2,0,0,1-4.36,4.73,7.84,7.84,0,0,1-5.6.62,28,28,0,0,1-7.77-3.35,27.62,27.62,0,0,1-6.75-5.1,7.8,7.8,0,0,1-2.23-5.18,14.82,14.82,0,0,1,6.32-10.86,7.71,7.71,0,0,1,5.59-.6,35.81,35.81,0,0,1,14.52,8.45,7.75,7.75,0,0,1,2.24,5.16A12.15,12.15,0,0,1,1825.19,778.2Zm-4.11-2.44a4.9,4.9,0,0,0,.72-2.12,3.19,3.19,0,0,0-.57-1.95,9.18,9.18,0,0,0-2.13-2.09,51,51,0,0,0-8.16-4.75,9.05,9.05,0,0,0-2.89-.83,3.1,3.1,0,0,0-2,.47,4.92,4.92,0,0,0-1.49,1.67,5.26,5.26,0,0,0-.75,2.17,3.2,3.2,0,0,0,.55,2,8.72,8.72,0,0,0,2.14,2.12,40.89,40.89,0,0,0,4,2.56,43,43,0,0,0,4.19,2.19,8.9,8.9,0,0,0,2.88.8,3.27,3.27,0,0,0,2-.5A5.15,5.15,0,0,0,1821.08,775.76Z" transform="translate(-151.42 -166.04)"/><path d="M1806.31,802.17l-20.39-18.5,4.08-4.49,14.45,13.11c.37.34.73.68,1.08,1a8.42,8.42,0,0,1,1,1.15l3.16-6,3.41,2.12-2.68,7Z" transform="translate(-151.42 -166.04)"/><path d="M1790.94,816a12.17,12.17,0,0,1-5.91,2.54,7.84,7.84,0,0,1-5.37-1.71,28.09,28.09,0,0,1-5.73-6.23,27.57,27.57,0,0,1-4.09-7.41,7.81,7.81,0,0,1,.08-5.63,14.84,14.84,0,0,1,10.2-7.34,7.71,7.71,0,0,1,5.34,1.72,36,36,0,0,1,9.82,13.63,7.77,7.77,0,0,1-.06,5.63A12.12,12.12,0,0,1,1790.94,816Zm-2.76-3.91a4.89,4.89,0,0,0,1.52-1.63,3.22,3.22,0,0,0,.27-2,9,9,0,0,0-1.09-2.78,42.2,42.2,0,0,0-2.59-4,38.63,38.63,0,0,0-2.93-3.69,9,9,0,0,0-2.3-1.94,3.16,3.16,0,0,0-2-.38,4.85,4.85,0,0,0-2,.93,5.08,5.08,0,0,0-1.57,1.67,3.22,3.22,0,0,0-.31,2,8.87,8.87,0,0,0,1.09,2.8,49.79,49.79,0,0,0,5.52,7.66,8.83,8.83,0,0,0,2.3,1.91,3.18,3.18,0,0,0,2,.35A5.1,5.1,0,0,0,1788.18,812Z" transform="translate(-151.42 -166.04)"/><path d="M1764.23,830.52a12.3,12.3,0,0,1-6.36,1,7.86,7.86,0,0,1-4.78-3,35.14,35.14,0,0,1-6.13-15.64,7.84,7.84,0,0,1,1.47-5.44,14.83,14.83,0,0,1,11.7-4.58,7.7,7.7,0,0,1,4.75,3,28.15,28.15,0,0,1,4,7.45,28.87,28.87,0,0,1,2.14,8.19,7.77,7.77,0,0,1-1.45,5.43A12.23,12.23,0,0,1,1764.23,830.52Zm-1.71-4.47a4.89,4.89,0,0,0,1.88-1.21,3.14,3.14,0,0,0,.76-1.88,8.88,8.88,0,0,0-.37-3,40.34,40.34,0,0,0-1.52-4.48,42.16,42.16,0,0,0-1.92-4.3,9.15,9.15,0,0,0-1.75-2.44,3.17,3.17,0,0,0-1.84-.87,4.91,4.91,0,0,0-2.21.39,5.1,5.1,0,0,0-1.93,1.23,3.26,3.26,0,0,0-.8,1.9,8.92,8.92,0,0,0,.35,3,44.09,44.09,0,0,0,1.52,4.47,41.74,41.74,0,0,0,1.93,4.32,8.62,8.62,0,0,0,1.76,2.41,3.16,3.16,0,0,0,1.88.85A5,5,0,0,0,1762.52,826.05Z" transform="translate(-151.42 -166.04)"/><path d="M1724.33,838.83a12.19,12.19,0,0,1-6.33-1.16,7.81,7.81,0,0,1-3.52-4.4,35.25,35.25,0,0,1-.63-16.79,7.84,7.84,0,0,1,3.18-4.65,14.84,14.84,0,0,1,12.56-.47,7.74,7.74,0,0,1,3.5,4.4,35.94,35.94,0,0,1,.63,16.79,7.77,7.77,0,0,1-3.16,4.65A12.2,12.2,0,0,1,1724.33,838.83Zm-.14-4.79a4.8,4.8,0,0,0,2.18-.52,3.15,3.15,0,0,0,1.34-1.52,9,9,0,0,0,.63-2.92,42.2,42.2,0,0,0,0-4.74,39.79,39.79,0,0,0-.4-4.69,9,9,0,0,0-.84-2.89,3.15,3.15,0,0,0-1.45-1.42,5,5,0,0,0-2.21-.36,5.13,5.13,0,0,0-2.24.53,3.15,3.15,0,0,0-1.38,1.53,8.67,8.67,0,0,0-.65,2.93,51.87,51.87,0,0,0,.35,9.43,9,9,0,0,0,.87,2.87,3.28,3.28,0,0,0,1.49,1.42A5.05,5.05,0,0,0,1724.19,834Z" transform="translate(-151.42 -166.04)"/><path d="M1697.36,838.36V810.83h6.06v19.51c0,.5,0,1,0,1.49a9.77,9.77,0,0,1-.19,1.5l6.54-1.68.72,4-7,2.76Z" transform="translate(-151.42 -166.04)"/><path d="M1680.13,838.36V810.83h6.06v19.51c0,.5,0,1,0,1.49a9.8,9.8,0,0,1-.2,1.5l6.55-1.68.71,4-7,2.76Z" transform="translate(-151.42 -166.04)"/><path d="M1663.87,838.92a12.24,12.24,0,0,1-6.29-1.4,7.86,7.86,0,0,1-3.35-4.53,35.44,35.44,0,0,1,0-16.8,7.86,7.86,0,0,1,3.35-4.53,14.9,14.9,0,0,1,12.57,0,7.76,7.76,0,0,1,3.34,4.53,36.13,36.13,0,0,1,0,16.8,7.76,7.76,0,0,1-3.34,4.53A12.18,12.18,0,0,1,1663.87,838.92Zm0-4.79a4.88,4.88,0,0,0,2.19-.44,3.16,3.16,0,0,0,1.4-1.48,8.92,8.92,0,0,0,.74-2.89,50.74,50.74,0,0,0,0-9.44,9,9,0,0,0-.74-2.91,3.2,3.2,0,0,0-1.4-1.48,4.88,4.88,0,0,0-2.19-.43,5.18,5.18,0,0,0-2.26.43,3.31,3.31,0,0,0-1.43,1.48,8.68,8.68,0,0,0-.76,2.91,50.74,50.74,0,0,0,0,9.44,8.62,8.62,0,0,0,.76,2.89,3.26,3.26,0,0,0,1.43,1.48A5.17,5.17,0,0,0,1663.91,834.13Z" transform="translate(-151.42 -166.04)"/><path d="M1637.68,838.36V810.83h6.07v19.51c0,.5,0,1,0,1.49a9.8,9.8,0,0,1-.2,1.5l6.54-1.68.72,4-7,2.76Z" transform="translate(-151.42 -166.04)"/><path d="M1620.47,838.36V810.83h6.07v19.51c0,.5,0,1,0,1.49a11.23,11.23,0,0,1-.2,1.5l6.54-1.68.72,4-7,2.76Z" transform="translate(-151.42 -166.04)"/><path d="M1603.21,838.36V810.83h6.06v19.51c0,.5,0,1,0,1.49a9.8,9.8,0,0,1-.2,1.5l6.54-1.68.72,4-7,2.76Z" transform="translate(-151.42 -166.04)"/><path d="M1586,838.36V810.83H1592v19.51c0,.5,0,1,0,1.49a9.8,9.8,0,0,1-.2,1.5l6.54-1.68.72,4-7,2.76Z" transform="translate(-151.42 -166.04)"/><path d="M1561.12,838.92a12.24,12.24,0,0,1-6.29-1.4,7.86,7.86,0,0,1-3.35-4.53,35.44,35.44,0,0,1,0-16.8,7.86,7.86,0,0,1,3.35-4.53,14.9,14.9,0,0,1,12.57,0,7.76,7.76,0,0,1,3.34,4.53,36.13,36.13,0,0,1,0,16.8,7.76,7.76,0,0,1-3.34,4.53A12.18,12.18,0,0,1,1561.12,838.92Zm0-4.79a4.88,4.88,0,0,0,2.19-.44,3.16,3.16,0,0,0,1.4-1.48,8.92,8.92,0,0,0,.74-2.89,50.74,50.74,0,0,0,0-9.44,9,9,0,0,0-.74-2.91,3.2,3.2,0,0,0-1.4-1.48,4.88,4.88,0,0,0-2.19-.43,5.18,5.18,0,0,0-2.26.43,3.31,3.31,0,0,0-1.43,1.48,8.68,8.68,0,0,0-.76,2.91,50.74,50.74,0,0,0,0,9.44,8.62,8.62,0,0,0,.76,2.89,3.26,3.26,0,0,0,1.43,1.48A5.17,5.17,0,0,0,1561.16,834.13Z" transform="translate(-151.42 -166.04)"/><path d="M1535,838.36V810.83H1541v19.51c0,.5,0,1,0,1.49a8.7,8.7,0,0,1-.2,1.5l6.55-1.68.71,4-7,2.76Z" transform="translate(-151.42 -166.04)"/><path d="M1517.71,838.36V810.83h6.07v19.51c0,.5,0,1,0,1.49a11.23,11.23,0,0,1-.2,1.5l6.54-1.68.72,4-7,2.76Z" transform="translate(-151.42 -166.04)"/><path d="M1501.47,838.92a12.2,12.2,0,0,1-6.28-1.4,7.81,7.81,0,0,1-3.35-4.53,35.1,35.1,0,0,1,0-16.8,7.81,7.81,0,0,1,3.35-4.53,14.9,14.9,0,0,1,12.57,0,7.79,7.79,0,0,1,3.33,4.53,35.78,35.78,0,0,1,0,16.8,7.79,7.79,0,0,1-3.33,4.53A12.21,12.21,0,0,1,1501.47,838.92Zm0-4.79a5,5,0,0,0,2.2-.44,3.14,3.14,0,0,0,1.39-1.48,8.67,8.67,0,0,0,.74-2.89,50.74,50.74,0,0,0,0-9.44,8.73,8.73,0,0,0-.74-2.91,3.19,3.19,0,0,0-1.39-1.48,5,5,0,0,0-2.2-.43,5.16,5.16,0,0,0-2.25.43,3.28,3.28,0,0,0-1.44,1.48,8.68,8.68,0,0,0-.76,2.91,50.74,50.74,0,0,0,0,9.44,8.62,8.62,0,0,0,.76,2.89,3.23,3.23,0,0,0,1.44,1.48A5.15,5.15,0,0,0,1501.51,834.13Z" transform="translate(-151.42 -166.04)"/><path d="M1475.28,838.36V810.83h6.07v19.51c0,.5,0,1,0,1.49a9.8,9.8,0,0,1-.2,1.5l6.54-1.68.72,4-7,2.76Z" transform="translate(-151.42 -166.04)"/><path d="M1458.05,838.36V810.83h6.07v19.51c0,.5,0,1,0,1.49a11.23,11.23,0,0,1-.2,1.5l6.54-1.68.72,4-7,2.76Z" transform="translate(-151.42 -166.04)"/><path d="M1440.79,838.36V810.83h6.07v19.51c0,.5,0,1,0,1.49a9.8,9.8,0,0,1-.2,1.5l6.54-1.68.72,4-7,2.76Z" transform="translate(-151.42 -166.04)"/><path d="M1424.55,838.92a12.2,12.2,0,0,1-6.28-1.4,7.81,7.81,0,0,1-3.35-4.53,35.1,35.1,0,0,1,0-16.8,7.81,7.81,0,0,1,3.35-4.53,14.9,14.9,0,0,1,12.57,0,7.75,7.75,0,0,1,3.33,4.53,35.78,35.78,0,0,1,0,16.8,7.75,7.75,0,0,1-3.33,4.53A12.21,12.21,0,0,1,1424.55,838.92Zm0-4.79a5,5,0,0,0,2.2-.44,3.21,3.21,0,0,0,1.4-1.48,8.94,8.94,0,0,0,.73-2.89,50.74,50.74,0,0,0,0-9.44,9,9,0,0,0-.73-2.91,3.25,3.25,0,0,0-1.4-1.48,5,5,0,0,0-2.2-.43,5.16,5.16,0,0,0-2.25.43,3.28,3.28,0,0,0-1.44,1.48,8.47,8.47,0,0,0-.75,2.91,50.74,50.74,0,0,0,0,9.44,8.41,8.41,0,0,0,.75,2.89,3.23,3.23,0,0,0,1.44,1.48A5.15,5.15,0,0,0,1424.59,834.13Z" transform="translate(-151.42 -166.04)"/><path d="M1390.76,838.92a12.2,12.2,0,0,1-6.28-1.4,7.81,7.81,0,0,1-3.35-4.53,35.1,35.1,0,0,1,0-16.8,7.81,7.81,0,0,1,3.35-4.53,14.9,14.9,0,0,1,12.57,0,7.75,7.75,0,0,1,3.33,4.53,35.78,35.78,0,0,1,0,16.8,7.75,7.75,0,0,1-3.33,4.53A12.21,12.21,0,0,1,1390.76,838.92Zm0-4.79a5,5,0,0,0,2.2-.44,3.21,3.21,0,0,0,1.4-1.48,8.94,8.94,0,0,0,.73-2.89,50.74,50.74,0,0,0,0-9.44,9,9,0,0,0-.73-2.91,3.25,3.25,0,0,0-1.4-1.48,5,5,0,0,0-2.2-.43,5.16,5.16,0,0,0-2.25.43,3.28,3.28,0,0,0-1.44,1.48,8.47,8.47,0,0,0-.75,2.91,50.74,50.74,0,0,0,0,9.44,8.41,8.41,0,0,0,.75,2.89,3.23,3.23,0,0,0,1.44,1.48A5.15,5.15,0,0,0,1390.8,834.13Z" transform="translate(-151.42 -166.04)"/><path d="M1364.58,838.36V810.83h6.07v19.51c0,.5,0,1,0,1.49a11.23,11.23,0,0,1-.2,1.5l6.54-1.68.72,4-7,2.76Z" transform="translate(-151.42 -166.04)"/><path d="M1347.33,838.36V810.83h6.07v19.51c0,.5,0,1,0,1.49a11.23,11.23,0,0,1-.2,1.5l6.54-1.68.72,4-7,2.76Z" transform="translate(-151.42 -166.04)"/><path d="M1331.09,838.92a12.2,12.2,0,0,1-6.28-1.4,7.81,7.81,0,0,1-3.35-4.53,35.1,35.1,0,0,1,0-16.8,7.81,7.81,0,0,1,3.35-4.53,14.9,14.9,0,0,1,12.57,0,7.75,7.75,0,0,1,3.33,4.53,35.78,35.78,0,0,1,0,16.8,7.75,7.75,0,0,1-3.33,4.53A12.21,12.21,0,0,1,1331.09,838.92Zm0-4.79a5,5,0,0,0,2.2-.44,3.21,3.21,0,0,0,1.4-1.48,8.94,8.94,0,0,0,.73-2.89,50.74,50.74,0,0,0,0-9.44,9,9,0,0,0-.73-2.91,3.25,3.25,0,0,0-1.4-1.48,5,5,0,0,0-2.2-.43,5.16,5.16,0,0,0-2.25.43,3.28,3.28,0,0,0-1.44,1.48,8.47,8.47,0,0,0-.75,2.91,50.74,50.74,0,0,0,0,9.44,8.41,8.41,0,0,0,.75,2.89,3.23,3.23,0,0,0,1.44,1.48A5.15,5.15,0,0,0,1331.13,834.13Z" transform="translate(-151.42 -166.04)"/><path d="M1305.93,838.92a12.18,12.18,0,0,1-6.28-1.4,7.77,7.77,0,0,1-3.35-4.53,35.1,35.1,0,0,1,0-16.8,7.77,7.77,0,0,1,3.35-4.53,14.9,14.9,0,0,1,12.57,0,7.79,7.79,0,0,1,3.33,4.53,36.13,36.13,0,0,1,0,16.8,7.79,7.79,0,0,1-3.33,4.53A12.24,12.24,0,0,1,1305.93,838.92Zm0-4.79a5,5,0,0,0,2.2-.44,3.14,3.14,0,0,0,1.39-1.48,8.92,8.92,0,0,0,.74-2.89,50.74,50.74,0,0,0,0-9.44,9,9,0,0,0-.74-2.91,3.19,3.19,0,0,0-1.39-1.48,5,5,0,0,0-2.2-.43,5.16,5.16,0,0,0-2.25.43,3.28,3.28,0,0,0-1.44,1.48,8.68,8.68,0,0,0-.76,2.91,50.74,50.74,0,0,0,0,9.44,8.62,8.62,0,0,0,.76,2.89,3.23,3.23,0,0,0,1.44,1.48A5.15,5.15,0,0,0,1306,834.13Z" transform="translate(-151.42 -166.04)"/><path d="M1279.74,838.36V810.83h6.06v19.51c0,.5,0,1,0,1.49a9.77,9.77,0,0,1-.19,1.5l6.54-1.68.72,4-7,2.76Z" transform="translate(-151.42 -166.04)"/><path d="M1263.5,838.92a12.21,12.21,0,0,1-6.29-1.4,7.86,7.86,0,0,1-3.35-4.53,35.1,35.1,0,0,1,0-16.8,7.86,7.86,0,0,1,3.35-4.53,14.9,14.9,0,0,1,12.57,0,7.71,7.71,0,0,1,3.33,4.53,35.78,35.78,0,0,1,0,16.8,7.71,7.71,0,0,1-3.33,4.53A12.2,12.2,0,0,1,1263.5,838.92Zm0-4.79a4.88,4.88,0,0,0,2.19-.44,3.16,3.16,0,0,0,1.4-1.48,9.18,9.18,0,0,0,.74-2.89,53.15,53.15,0,0,0,0-9.44,9.25,9.25,0,0,0-.74-2.91,3.2,3.2,0,0,0-1.4-1.48,4.88,4.88,0,0,0-2.19-.43,5.18,5.18,0,0,0-2.26.43,3.26,3.26,0,0,0-1.43,1.48,8.45,8.45,0,0,0-.76,2.91,50.74,50.74,0,0,0,0,9.44,8.39,8.39,0,0,0,.76,2.89,3.21,3.21,0,0,0,1.43,1.48A5.17,5.17,0,0,0,1263.54,834.13Z" transform="translate(-151.42 -166.04)"/><path d="M1237.33,838.36V810.83h6.06v19.51c0,.5,0,1,0,1.49a8.7,8.7,0,0,1-.2,1.5l6.55-1.68.71,4-7,2.76Z" transform="translate(-151.42 -166.04)"/><path d="M1212.48,838.92a12.21,12.21,0,0,1-6.29-1.4,7.86,7.86,0,0,1-3.35-4.53,35.44,35.44,0,0,1,0-16.8,7.86,7.86,0,0,1,3.35-4.53,14.9,14.9,0,0,1,12.57,0,7.71,7.71,0,0,1,3.33,4.53,35.78,35.78,0,0,1,0,16.8,7.71,7.71,0,0,1-3.33,4.53A12.18,12.18,0,0,1,1212.48,838.92Zm0-4.79a4.88,4.88,0,0,0,2.19-.44,3.16,3.16,0,0,0,1.4-1.48,8.92,8.92,0,0,0,.74-2.89,50.74,50.74,0,0,0,0-9.44,9,9,0,0,0-.74-2.91,3.2,3.2,0,0,0-1.4-1.48,4.88,4.88,0,0,0-2.19-.43,5.18,5.18,0,0,0-2.26.43,3.31,3.31,0,0,0-1.43,1.48,8.68,8.68,0,0,0-.76,2.91,50.74,50.74,0,0,0,0,9.44,8.62,8.62,0,0,0,.76,2.89,3.26,3.26,0,0,0,1.43,1.48A5.17,5.17,0,0,0,1212.52,834.13Z" transform="translate(-151.42 -166.04)"/><path d="M1186.27,838.36V810.83h6.07v19.51c0,.5,0,1,0,1.49a9.8,9.8,0,0,1-.2,1.5l6.54-1.68.72,4-7,2.76Z" transform="translate(-151.42 -166.04)"/><path d="M1169,838.36V810.83h6.07v19.51c0,.5,0,1,0,1.49a11.23,11.23,0,0,1-.2,1.5l6.54-1.68.72,4-7,2.76Z" transform="translate(-151.42 -166.04)"/><path d="M1151.81,838.36V810.83h6.06v19.51c0,.5,0,1,0,1.49a9.8,9.8,0,0,1-.2,1.5l6.54-1.68.72,4-7,2.76Z" transform="translate(-151.42 -166.04)"/><path d="M1135.56,838.92a12.18,12.18,0,0,1-6.28-1.4,7.83,7.83,0,0,1-3.36-4.53,35.44,35.44,0,0,1,0-16.8,7.83,7.83,0,0,1,3.36-4.53,14.88,14.88,0,0,1,12.56,0,7.76,7.76,0,0,1,3.34,4.53,36.13,36.13,0,0,1,0,16.8,7.76,7.76,0,0,1-3.34,4.53A12.18,12.18,0,0,1,1135.56,838.92Zm0-4.79a4.88,4.88,0,0,0,2.19-.44,3.11,3.11,0,0,0,1.4-1.48,8.92,8.92,0,0,0,.74-2.89,50.74,50.74,0,0,0,0-9.44,9,9,0,0,0-.74-2.91,3.16,3.16,0,0,0-1.4-1.48,4.88,4.88,0,0,0-2.19-.43,5.13,5.13,0,0,0-2.25.43,3.28,3.28,0,0,0-1.44,1.48,8.68,8.68,0,0,0-.76,2.91,50.74,50.74,0,0,0,0,9.44,8.62,8.62,0,0,0,.76,2.89,3.23,3.23,0,0,0,1.44,1.48A5.12,5.12,0,0,0,1135.6,834.13Z" transform="translate(-151.42 -166.04)"/><path d="M1110.39,838.92a12.18,12.18,0,0,1-6.28-1.4,7.83,7.83,0,0,1-3.36-4.53,35.44,35.44,0,0,1,0-16.8,7.83,7.83,0,0,1,3.36-4.53,14.88,14.88,0,0,1,12.56,0,7.76,7.76,0,0,1,3.34,4.53,36.13,36.13,0,0,1,0,16.8,7.76,7.76,0,0,1-3.34,4.53A12.18,12.18,0,0,1,1110.39,838.92Zm0-4.79a4.88,4.88,0,0,0,2.19-.44,3.16,3.16,0,0,0,1.4-1.48,8.92,8.92,0,0,0,.74-2.89,50.74,50.74,0,0,0,0-9.44A9,9,0,0,0,1114,817a3.2,3.2,0,0,0-1.4-1.48,4.88,4.88,0,0,0-2.19-.43,5.21,5.21,0,0,0-2.26.43,3.31,3.31,0,0,0-1.43,1.48,8.68,8.68,0,0,0-.76,2.91,50.74,50.74,0,0,0,0,9.44,8.62,8.62,0,0,0,.76,2.89,3.26,3.26,0,0,0,1.43,1.48A5.2,5.2,0,0,0,1110.43,834.13Z" transform="translate(-151.42 -166.04)"/><path d="M1084.2,838.36V810.83h6.06v19.51c0,.5,0,1,0,1.49a9.77,9.77,0,0,1-.19,1.5l6.54-1.68.72,4-7,2.76Z" transform="translate(-151.42 -166.04)"/><path d="M1067,838.36V810.83H1073v19.51c0,.5,0,1,0,1.49a9.77,9.77,0,0,1-.19,1.5l6.54-1.68.72,4-7,2.76Z" transform="translate(-151.42 -166.04)"/><path d="M1042.1,838.92a12.21,12.21,0,0,1-6.29-1.4,7.86,7.86,0,0,1-3.35-4.53,35.1,35.1,0,0,1,0-16.8,7.86,7.86,0,0,1,3.35-4.53,14.9,14.9,0,0,1,12.57,0,7.71,7.71,0,0,1,3.33,4.53,35.78,35.78,0,0,1,0,16.8,7.71,7.71,0,0,1-3.33,4.53A12.18,12.18,0,0,1,1042.1,838.92Zm0-4.79a4.88,4.88,0,0,0,2.19-.44,3.16,3.16,0,0,0,1.4-1.48,9.18,9.18,0,0,0,.74-2.89,50.74,50.74,0,0,0,0-9.44,9.25,9.25,0,0,0-.74-2.91,3.2,3.2,0,0,0-1.4-1.48,4.88,4.88,0,0,0-2.19-.43,5.18,5.18,0,0,0-2.26.43,3.26,3.26,0,0,0-1.43,1.48,8.45,8.45,0,0,0-.76,2.91,50.74,50.74,0,0,0,0,9.44,8.39,8.39,0,0,0,.76,2.89,3.21,3.21,0,0,0,1.43,1.48A5.17,5.17,0,0,0,1042.14,834.13Z" transform="translate(-151.42 -166.04)"/><path d="M1015.93,838.36V810.83H1022v19.51c0,.5,0,1,0,1.49a9.8,9.8,0,0,1-.2,1.5l6.54-1.68.72,4-7,2.76Z" transform="translate(-151.42 -166.04)"/><path d="M998.69,838.36V810.83h6.07v19.51c0,.5,0,1,0,1.49a11.23,11.23,0,0,1-.2,1.5l6.54-1.68.72,4-7,2.76Z" transform="translate(-151.42 -166.04)"/><path d="M982.44,838.92a12.18,12.18,0,0,1-6.28-1.4A7.83,7.83,0,0,1,972.8,833a35.44,35.44,0,0,1,0-16.8,7.83,7.83,0,0,1,3.36-4.53,14.9,14.9,0,0,1,12.57,0,7.79,7.79,0,0,1,3.33,4.53,36.13,36.13,0,0,1,0,16.8,7.79,7.79,0,0,1-3.33,4.53A12.24,12.24,0,0,1,982.44,838.92Zm0-4.79a5,5,0,0,0,2.2-.44,3.14,3.14,0,0,0,1.39-1.48,8.92,8.92,0,0,0,.74-2.89,50.74,50.74,0,0,0,0-9.44,9,9,0,0,0-.74-2.91,3.19,3.19,0,0,0-1.39-1.48,5,5,0,0,0-2.2-.43,5.13,5.13,0,0,0-2.25.43,3.28,3.28,0,0,0-1.44,1.48,8.68,8.68,0,0,0-.76,2.91,50.74,50.74,0,0,0,0,9.44,8.62,8.62,0,0,0,.76,2.89,3.23,3.23,0,0,0,1.44,1.48A5.12,5.12,0,0,0,982.48,834.13Z" transform="translate(-151.42 -166.04)"/><path d="M956.27,838.36V810.83h6.06v19.51c0,.5,0,1,0,1.49a8.7,8.7,0,0,1-.2,1.5l6.55-1.68.71,4-7,2.76Z" transform="translate(-151.42 -166.04)"/><path d="M940,838.92a12.18,12.18,0,0,1-6.28-1.4,7.77,7.77,0,0,1-3.35-4.53,35.1,35.1,0,0,1,0-16.8,7.77,7.77,0,0,1,3.35-4.53,14.9,14.9,0,0,1,12.57,0,7.79,7.79,0,0,1,3.33,4.53,36.13,36.13,0,0,1,0,16.8,7.79,7.79,0,0,1-3.33,4.53A12.24,12.24,0,0,1,940,838.92Zm0-4.79a5,5,0,0,0,2.2-.44,3.14,3.14,0,0,0,1.39-1.48,8.92,8.92,0,0,0,.74-2.89,50.74,50.74,0,0,0,0-9.44,9,9,0,0,0-.74-2.91,3.19,3.19,0,0,0-1.39-1.48,5,5,0,0,0-2.2-.43,5.16,5.16,0,0,0-2.25.43,3.28,3.28,0,0,0-1.44,1.48,8.68,8.68,0,0,0-.76,2.91,50.74,50.74,0,0,0,0,9.44,8.62,8.62,0,0,0,.76,2.89,3.23,3.23,0,0,0,1.44,1.48A5.15,5.15,0,0,0,940.06,834.13Z" transform="translate(-151.42 -166.04)"/><path d="M914.84,838.92a12.21,12.21,0,0,1-6.29-1.4A7.86,7.86,0,0,1,905.2,833a35.1,35.1,0,0,1,0-16.8,7.86,7.86,0,0,1,3.35-4.53,14.9,14.9,0,0,1,12.57,0,7.71,7.71,0,0,1,3.33,4.53,35.78,35.78,0,0,1,0,16.8,7.71,7.71,0,0,1-3.33,4.53A12.2,12.2,0,0,1,914.84,838.92Zm0-4.79a4.91,4.91,0,0,0,2.19-.44,3.16,3.16,0,0,0,1.4-1.48,9.18,9.18,0,0,0,.74-2.89,53.15,53.15,0,0,0,0-9.44,9.25,9.25,0,0,0-.74-2.91,3.2,3.2,0,0,0-1.4-1.48,4.91,4.91,0,0,0-2.19-.43,5.18,5.18,0,0,0-2.26.43,3.21,3.21,0,0,0-1.43,1.48,8.45,8.45,0,0,0-.76,2.91,50.74,50.74,0,0,0,0,9.44,8.39,8.39,0,0,0,.76,2.89,3.17,3.17,0,0,0,1.43,1.48A5.17,5.17,0,0,0,914.88,834.13Z" transform="translate(-151.42 -166.04)"/><path d="M888.67,838.36V810.83h6.07v19.51c0,.5,0,1,0,1.49a11.23,11.23,0,0,1-.2,1.5l6.54-1.68.72,4-7,2.76Z" transform="translate(-151.42 -166.04)"/><path d="M863.81,838.92a12.18,12.18,0,0,1-6.28-1.4,7.81,7.81,0,0,1-3.35-4.53,35.1,35.1,0,0,1,0-16.8,7.81,7.81,0,0,1,3.35-4.53,14.9,14.9,0,0,1,12.57,0,7.79,7.79,0,0,1,3.33,4.53,35.78,35.78,0,0,1,0,16.8,7.79,7.79,0,0,1-3.33,4.53A12.21,12.21,0,0,1,863.81,838.92Zm0-4.79a5,5,0,0,0,2.2-.44,3.14,3.14,0,0,0,1.39-1.48,8.67,8.67,0,0,0,.74-2.89,50.74,50.74,0,0,0,0-9.44,8.73,8.73,0,0,0-.74-2.91,3.19,3.19,0,0,0-1.39-1.48,5,5,0,0,0-2.2-.43,5.16,5.16,0,0,0-2.25.43,3.28,3.28,0,0,0-1.44,1.48,8.68,8.68,0,0,0-.76,2.91,50.74,50.74,0,0,0,0,9.44,8.62,8.62,0,0,0,.76,2.89,3.23,3.23,0,0,0,1.44,1.48A5.15,5.15,0,0,0,863.85,834.13Z" transform="translate(-151.42 -166.04)"/><path d="M837.64,838.36V810.83h6.07v19.51c0,.5,0,1,0,1.49a9.8,9.8,0,0,1-.2,1.5l6.54-1.68.72,4-7,2.76Z" transform="translate(-151.42 -166.04)"/><path d="M820.4,838.36V810.83h6.07v19.51c0,.5,0,1,0,1.49a9.8,9.8,0,0,1-.2,1.5l6.54-1.68.72,4-7,2.76Z" transform="translate(-151.42 -166.04)"/><path d="M804.15,838.92a12.18,12.18,0,0,1-6.28-1.4,7.83,7.83,0,0,1-3.36-4.53,35.44,35.44,0,0,1,0-16.8,7.83,7.83,0,0,1,3.36-4.53,14.9,14.9,0,0,1,12.57,0,7.79,7.79,0,0,1,3.33,4.53,36.13,36.13,0,0,1,0,16.8,7.79,7.79,0,0,1-3.33,4.53A12.24,12.24,0,0,1,804.15,838.92Zm0-4.79a5,5,0,0,0,2.2-.44,3.14,3.14,0,0,0,1.39-1.48,8.92,8.92,0,0,0,.74-2.89,50.74,50.74,0,0,0,0-9.44,9,9,0,0,0-.74-2.91,3.19,3.19,0,0,0-1.39-1.48,5,5,0,0,0-2.2-.43,5.13,5.13,0,0,0-2.25.43A3.28,3.28,0,0,0,800.5,817a8.68,8.68,0,0,0-.76,2.91,50.74,50.74,0,0,0,0,9.44,8.62,8.62,0,0,0,.76,2.89,3.23,3.23,0,0,0,1.44,1.48A5.12,5.12,0,0,0,804.19,834.13Z" transform="translate(-151.42 -166.04)"/><path d="M779,838.92a12.24,12.24,0,0,1-6.29-1.4,7.86,7.86,0,0,1-3.35-4.53,35.44,35.44,0,0,1,0-16.8,7.86,7.86,0,0,1,3.35-4.53,14.9,14.9,0,0,1,12.57,0,7.71,7.71,0,0,1,3.33,4.53,35.78,35.78,0,0,1,0,16.8,7.71,7.71,0,0,1-3.33,4.53A12.18,12.18,0,0,1,779,838.92Zm0-4.79a4.88,4.88,0,0,0,2.19-.44,3.16,3.16,0,0,0,1.4-1.48,8.92,8.92,0,0,0,.74-2.89,50.74,50.74,0,0,0,0-9.44,9,9,0,0,0-.74-2.91,3.2,3.2,0,0,0-1.4-1.48,4.88,4.88,0,0,0-2.19-.43,5.18,5.18,0,0,0-2.26.43,3.31,3.31,0,0,0-1.43,1.48,8.68,8.68,0,0,0-.76,2.91,50.74,50.74,0,0,0,0,9.44,8.62,8.62,0,0,0,.76,2.89,3.26,3.26,0,0,0,1.43,1.48A5.17,5.17,0,0,0,779,834.13Z" transform="translate(-151.42 -166.04)"/><path d="M753.77,838.92a12.18,12.18,0,0,1-6.28-1.4,7.77,7.77,0,0,1-3.35-4.53,35.1,35.1,0,0,1,0-16.8,7.77,7.77,0,0,1,3.35-4.53,14.9,14.9,0,0,1,12.57,0,7.79,7.79,0,0,1,3.33,4.53,35.78,35.78,0,0,1,0,16.8,7.79,7.79,0,0,1-3.33,4.53A12.21,12.21,0,0,1,753.77,838.92Zm0-4.79a5,5,0,0,0,2.2-.44,3.14,3.14,0,0,0,1.39-1.48,8.67,8.67,0,0,0,.74-2.89,50.74,50.74,0,0,0,0-9.44,8.73,8.73,0,0,0-.74-2.91,3.19,3.19,0,0,0-1.39-1.48,5,5,0,0,0-2.2-.43,5.16,5.16,0,0,0-2.25.43,3.28,3.28,0,0,0-1.44,1.48,8.68,8.68,0,0,0-.76,2.91,50.74,50.74,0,0,0,0,9.44,8.62,8.62,0,0,0,.76,2.89,3.23,3.23,0,0,0,1.44,1.48A5.15,5.15,0,0,0,753.81,834.13Z" transform="translate(-151.42 -166.04)"/><path d="M728.6,838.92a12.18,12.18,0,0,1-6.28-1.4A7.83,7.83,0,0,1,719,833a35.44,35.44,0,0,1,0-16.8,7.83,7.83,0,0,1,3.36-4.53,14.88,14.88,0,0,1,12.56,0,7.76,7.76,0,0,1,3.34,4.53,36.13,36.13,0,0,1,0,16.8,7.76,7.76,0,0,1-3.34,4.53A12.18,12.18,0,0,1,728.6,838.92Zm0-4.79a4.88,4.88,0,0,0,2.19-.44,3.11,3.11,0,0,0,1.4-1.48,8.92,8.92,0,0,0,.74-2.89,50.74,50.74,0,0,0,0-9.44,9,9,0,0,0-.74-2.91,3.16,3.16,0,0,0-1.4-1.48,4.88,4.88,0,0,0-2.19-.43,5.13,5.13,0,0,0-2.25.43A3.28,3.28,0,0,0,725,817a8.68,8.68,0,0,0-.76,2.91,50.74,50.74,0,0,0,0,9.44,8.62,8.62,0,0,0,.76,2.89,3.23,3.23,0,0,0,1.44,1.48A5.12,5.12,0,0,0,728.64,834.13Z" transform="translate(-151.42 -166.04)"/><path d="M702.43,838.36V810.83h6.07v19.51c0,.5,0,1,0,1.49a9.8,9.8,0,0,1-.2,1.5l6.54-1.68.72,4-7,2.76Z" transform="translate(-151.42 -166.04)"/><path d="M677.57,838.92a12.18,12.18,0,0,1-6.28-1.4,7.83,7.83,0,0,1-3.36-4.53,35.44,35.44,0,0,1,0-16.8,7.83,7.83,0,0,1,3.36-4.53,14.88,14.88,0,0,1,12.56,0,7.76,7.76,0,0,1,3.34,4.53,36.13,36.13,0,0,1,0,16.8,7.76,7.76,0,0,1-3.34,4.53A12.18,12.18,0,0,1,677.57,838.92Zm0-4.79a4.88,4.88,0,0,0,2.19-.44,3.11,3.11,0,0,0,1.4-1.48,8.92,8.92,0,0,0,.74-2.89,50.74,50.74,0,0,0,0-9.44,9,9,0,0,0-.74-2.91,3.16,3.16,0,0,0-1.4-1.48,4.88,4.88,0,0,0-2.19-.43,5.13,5.13,0,0,0-2.25.43,3.28,3.28,0,0,0-1.44,1.48,8.68,8.68,0,0,0-.76,2.91,50.74,50.74,0,0,0,0,9.44,8.62,8.62,0,0,0,.76,2.89,3.23,3.23,0,0,0,1.44,1.48A5.12,5.12,0,0,0,677.61,834.13Z" transform="translate(-151.42 -166.04)"/><path d="M652.4,838.92a12.18,12.18,0,0,1-6.28-1.4,7.83,7.83,0,0,1-3.36-4.53,35.44,35.44,0,0,1,0-16.8,7.83,7.83,0,0,1,3.36-4.53,14.88,14.88,0,0,1,12.56,0,7.76,7.76,0,0,1,3.34,4.53,36.13,36.13,0,0,1,0,16.8,7.76,7.76,0,0,1-3.34,4.53A12.18,12.18,0,0,1,652.4,838.92Zm0-4.79a4.88,4.88,0,0,0,2.19-.44,3.16,3.16,0,0,0,1.4-1.48,8.92,8.92,0,0,0,.74-2.89,50.74,50.74,0,0,0,0-9.44A9,9,0,0,0,656,817a3.2,3.2,0,0,0-1.4-1.48,4.88,4.88,0,0,0-2.19-.43,5.13,5.13,0,0,0-2.25.43,3.28,3.28,0,0,0-1.44,1.48,8.68,8.68,0,0,0-.76,2.91,50.74,50.74,0,0,0,0,9.44,8.62,8.62,0,0,0,.76,2.89,3.23,3.23,0,0,0,1.44,1.48A5.12,5.12,0,0,0,652.44,834.13Z" transform="translate(-151.42 -166.04)"/><path d="M626.21,838.36V810.83h6.07v19.51c0,.5,0,1,0,1.49a11.23,11.23,0,0,1-.2,1.5l6.54-1.68.72,4-7,2.76Z" transform="translate(-151.42 -166.04)"/><path d="M610,838.92a12.18,12.18,0,0,1-6.28-1.4,7.77,7.77,0,0,1-3.35-4.53,35.1,35.1,0,0,1,0-16.8,7.77,7.77,0,0,1,3.35-4.53,14.9,14.9,0,0,1,12.57,0,7.79,7.79,0,0,1,3.33,4.53,35.78,35.78,0,0,1,0,16.8,7.79,7.79,0,0,1-3.33,4.53A12.21,12.21,0,0,1,610,838.92Zm0-4.79a5,5,0,0,0,2.2-.44,3.14,3.14,0,0,0,1.39-1.48,8.67,8.67,0,0,0,.74-2.89,50.74,50.74,0,0,0,0-9.44,8.73,8.73,0,0,0-.74-2.91,3.19,3.19,0,0,0-1.39-1.48,5,5,0,0,0-2.2-.43,5.16,5.16,0,0,0-2.25.43,3.28,3.28,0,0,0-1.44,1.48,8.68,8.68,0,0,0-.76,2.91,50.74,50.74,0,0,0,0,9.44,8.62,8.62,0,0,0,.76,2.89,3.23,3.23,0,0,0,1.44,1.48A5.15,5.15,0,0,0,610,834.13Z" transform="translate(-151.42 -166.04)"/><path d="M584.79,838.92a12.21,12.21,0,0,1-6.29-1.4,7.86,7.86,0,0,1-3.35-4.53,35.1,35.1,0,0,1,0-16.8,7.86,7.86,0,0,1,3.35-4.53,14.9,14.9,0,0,1,12.57,0,7.71,7.71,0,0,1,3.33,4.53,35.78,35.78,0,0,1,0,16.8,7.71,7.71,0,0,1-3.33,4.53A12.2,12.2,0,0,1,584.79,838.92Zm0-4.79a4.91,4.91,0,0,0,2.19-.44,3.16,3.16,0,0,0,1.4-1.48,9.18,9.18,0,0,0,.74-2.89,50.74,50.74,0,0,0,0-9.44,9.25,9.25,0,0,0-.74-2.91,3.2,3.2,0,0,0-1.4-1.48,4.91,4.91,0,0,0-2.19-.43,5.18,5.18,0,0,0-2.26.43,3.21,3.21,0,0,0-1.43,1.48,8.45,8.45,0,0,0-.76,2.91,50.74,50.74,0,0,0,0,9.44,8.39,8.39,0,0,0,.76,2.89,3.17,3.17,0,0,0,1.43,1.48A5.17,5.17,0,0,0,584.83,834.13Z" transform="translate(-151.42 -166.04)"/><path d="M559.61,838.92a12.18,12.18,0,0,1-6.28-1.4A7.77,7.77,0,0,1,550,833a35.1,35.1,0,0,1,0-16.8,7.77,7.77,0,0,1,3.35-4.53,14.9,14.9,0,0,1,12.57,0,7.79,7.79,0,0,1,3.33,4.53,36.13,36.13,0,0,1,0,16.8,7.79,7.79,0,0,1-3.33,4.53A12.24,12.24,0,0,1,559.61,838.92Zm0-4.79a5,5,0,0,0,2.2-.44,3.14,3.14,0,0,0,1.39-1.48,8.92,8.92,0,0,0,.74-2.89,50.74,50.74,0,0,0,0-9.44,9,9,0,0,0-.74-2.91,3.19,3.19,0,0,0-1.39-1.48,5,5,0,0,0-2.2-.43,5.16,5.16,0,0,0-2.25.43A3.28,3.28,0,0,0,556,817a8.68,8.68,0,0,0-.76,2.91,50.74,50.74,0,0,0,0,9.44,8.62,8.62,0,0,0,.76,2.89,3.23,3.23,0,0,0,1.44,1.48A5.15,5.15,0,0,0,559.65,834.13Z" transform="translate(-151.42 -166.04)"/><path d="M534.41,838.92a12.18,12.18,0,0,1-6.28-1.4,7.83,7.83,0,0,1-3.36-4.53,35.44,35.44,0,0,1,0-16.8,7.83,7.83,0,0,1,3.36-4.53,14.88,14.88,0,0,1,12.56,0,7.76,7.76,0,0,1,3.34,4.53,36.13,36.13,0,0,1,0,16.8,7.76,7.76,0,0,1-3.34,4.53A12.18,12.18,0,0,1,534.41,838.92Zm0-4.79a4.88,4.88,0,0,0,2.19-.44,3.16,3.16,0,0,0,1.4-1.48,8.92,8.92,0,0,0,.74-2.89,50.74,50.74,0,0,0,0-9.44A9,9,0,0,0,538,817a3.2,3.2,0,0,0-1.4-1.48,4.88,4.88,0,0,0-2.19-.43,5.13,5.13,0,0,0-2.25.43,3.28,3.28,0,0,0-1.44,1.48,8.68,8.68,0,0,0-.76,2.91,50.74,50.74,0,0,0,0,9.44,8.62,8.62,0,0,0,.76,2.89,3.23,3.23,0,0,0,1.44,1.48A5.12,5.12,0,0,0,534.45,834.13Z" transform="translate(-151.42 -166.04)"/><path d="M509.23,838.92a12.18,12.18,0,0,1-6.28-1.4A7.77,7.77,0,0,1,499.6,833a35.1,35.1,0,0,1,0-16.8,7.77,7.77,0,0,1,3.35-4.53,14.9,14.9,0,0,1,12.57,0,7.79,7.79,0,0,1,3.33,4.53,35.78,35.78,0,0,1,0,16.8,7.79,7.79,0,0,1-3.33,4.53A12.21,12.21,0,0,1,509.23,838.92Zm0-4.79a5,5,0,0,0,2.2-.44,3.14,3.14,0,0,0,1.39-1.48,8.67,8.67,0,0,0,.74-2.89,50.74,50.74,0,0,0,0-9.44,8.73,8.73,0,0,0-.74-2.91,3.19,3.19,0,0,0-1.39-1.48,5,5,0,0,0-2.2-.43,5.16,5.16,0,0,0-2.25.43,3.28,3.28,0,0,0-1.44,1.48,8.68,8.68,0,0,0-.76,2.91,50.74,50.74,0,0,0,0,9.44,8.62,8.62,0,0,0,.76,2.89,3.23,3.23,0,0,0,1.44,1.48A5.15,5.15,0,0,0,509.27,834.13Z" transform="translate(-151.42 -166.04)"/><path d="M475.44,838.92a12.2,12.2,0,0,1-6.28-1.4,7.81,7.81,0,0,1-3.35-4.53,35.1,35.1,0,0,1,0-16.8,7.81,7.81,0,0,1,3.35-4.53,14.9,14.9,0,0,1,12.57,0,7.71,7.71,0,0,1,3.33,4.53,35.78,35.78,0,0,1,0,16.8,7.71,7.71,0,0,1-3.33,4.53A12.21,12.21,0,0,1,475.44,838.92Zm0-4.79a5,5,0,0,0,2.2-.44,3.21,3.21,0,0,0,1.4-1.48,8.94,8.94,0,0,0,.73-2.89,50.74,50.74,0,0,0,0-9.44,9,9,0,0,0-.73-2.91,3.25,3.25,0,0,0-1.4-1.48,5,5,0,0,0-2.2-.43,5.16,5.16,0,0,0-2.25.43,3.28,3.28,0,0,0-1.44,1.48,8.47,8.47,0,0,0-.75,2.91,50.74,50.74,0,0,0,0,9.44,8.41,8.41,0,0,0,.75,2.89,3.23,3.23,0,0,0,1.44,1.48A5.15,5.15,0,0,0,475.48,834.13Z" transform="translate(-151.42 -166.04)"/><path d="M449.27,838.36V810.83h6.06v19.51c0,.5,0,1,0,1.49a8.7,8.7,0,0,1-.2,1.5l6.55-1.68.72,4-7,2.76Z" transform="translate(-151.42 -166.04)"/><path d="M433,838.92a12.21,12.21,0,0,1-6.29-1.4,7.86,7.86,0,0,1-3.35-4.53,35.1,35.1,0,0,1,0-16.8,7.86,7.86,0,0,1,3.35-4.53,14.9,14.9,0,0,1,12.57,0,7.71,7.71,0,0,1,3.33,4.53,35.78,35.78,0,0,1,0,16.8,7.71,7.71,0,0,1-3.33,4.53A12.18,12.18,0,0,1,433,838.92Zm0-4.79a4.91,4.91,0,0,0,2.19-.44,3.16,3.16,0,0,0,1.4-1.48,9.18,9.18,0,0,0,.74-2.89,50.74,50.74,0,0,0,0-9.44,9.25,9.25,0,0,0-.74-2.91,3.2,3.2,0,0,0-1.4-1.48,4.91,4.91,0,0,0-2.19-.43,5.18,5.18,0,0,0-2.26.43,3.26,3.26,0,0,0-1.43,1.48,8.45,8.45,0,0,0-.76,2.91,50.74,50.74,0,0,0,0,9.44,8.39,8.39,0,0,0,.76,2.89,3.21,3.21,0,0,0,1.43,1.48A5.17,5.17,0,0,0,433.05,834.13Z" transform="translate(-151.42 -166.04)"/><path d="M407.84,838.92a12.18,12.18,0,0,1-6.28-1.4,7.77,7.77,0,0,1-3.35-4.53,35.1,35.1,0,0,1,0-16.8,7.77,7.77,0,0,1,3.35-4.53,14.9,14.9,0,0,1,12.57,0,7.79,7.79,0,0,1,3.33,4.53,35.78,35.78,0,0,1,0,16.8,7.79,7.79,0,0,1-3.33,4.53A12.21,12.21,0,0,1,407.84,838.92Zm0-4.79a5,5,0,0,0,2.2-.44,3.14,3.14,0,0,0,1.39-1.48,8.67,8.67,0,0,0,.74-2.89,50.74,50.74,0,0,0,0-9.44,8.73,8.73,0,0,0-.74-2.91,3.19,3.19,0,0,0-1.39-1.48,5,5,0,0,0-2.2-.43,5.16,5.16,0,0,0-2.25.43,3.28,3.28,0,0,0-1.44,1.48,8.68,8.68,0,0,0-.76,2.91,50.74,50.74,0,0,0,0,9.44,8.62,8.62,0,0,0,.76,2.89,3.23,3.23,0,0,0,1.44,1.48A5.15,5.15,0,0,0,407.88,834.13Z" transform="translate(-151.42 -166.04)"/><path d="M382.67,838.92a12.21,12.21,0,0,1-6.29-1.4A7.86,7.86,0,0,1,373,833a35.1,35.1,0,0,1,0-16.8,7.86,7.86,0,0,1,3.35-4.53,14.9,14.9,0,0,1,12.57,0,7.71,7.71,0,0,1,3.33,4.53,35.78,35.78,0,0,1,0,16.8,7.71,7.71,0,0,1-3.33,4.53A12.18,12.18,0,0,1,382.67,838.92Zm0-4.79a4.88,4.88,0,0,0,2.19-.44,3.16,3.16,0,0,0,1.4-1.48,9.18,9.18,0,0,0,.74-2.89,50.74,50.74,0,0,0,0-9.44,9.25,9.25,0,0,0-.74-2.91,3.2,3.2,0,0,0-1.4-1.48,4.88,4.88,0,0,0-2.19-.43,5.18,5.18,0,0,0-2.26.43A3.26,3.26,0,0,0,379,817a8.68,8.68,0,0,0-.76,2.91,50.74,50.74,0,0,0,0,9.44,8.62,8.62,0,0,0,.76,2.89,3.21,3.21,0,0,0,1.43,1.48A5.17,5.17,0,0,0,382.71,834.13Z" transform="translate(-151.42 -166.04)"/><path d="M356.48,838.36V810.83h6.07v19.51c0,.5,0,1,0,1.49a11.23,11.23,0,0,1-.2,1.5l6.54-1.68.72,4-7,2.76Z" transform="translate(-151.42 -166.04)"/><path d="M340.24,838.92a12.18,12.18,0,0,1-6.28-1.4A7.83,7.83,0,0,1,330.6,833a35.44,35.44,0,0,1,0-16.8,7.83,7.83,0,0,1,3.36-4.53,14.88,14.88,0,0,1,12.56,0,7.76,7.76,0,0,1,3.34,4.53,36.13,36.13,0,0,1,0,16.8,7.76,7.76,0,0,1-3.34,4.53A12.18,12.18,0,0,1,340.24,838.92Zm0-4.79a5,5,0,0,0,2.2-.44,3.14,3.14,0,0,0,1.39-1.48,8.92,8.92,0,0,0,.74-2.89,50.74,50.74,0,0,0,0-9.44,9,9,0,0,0-.74-2.91,3.19,3.19,0,0,0-1.39-1.48,5,5,0,0,0-2.2-.43,5.13,5.13,0,0,0-2.25.43,3.28,3.28,0,0,0-1.44,1.48,8.68,8.68,0,0,0-.76,2.91,50.74,50.74,0,0,0,0,9.44,8.62,8.62,0,0,0,.76,2.89,3.23,3.23,0,0,0,1.44,1.48A5.12,5.12,0,0,0,340.28,834.13Z" transform="translate(-151.42 -166.04)"/><path d="M315.07,838.92a12.18,12.18,0,0,1-6.28-1.4,7.77,7.77,0,0,1-3.35-4.53,35.1,35.1,0,0,1,0-16.8,7.77,7.77,0,0,1,3.35-4.53,14.9,14.9,0,0,1,12.57,0,7.79,7.79,0,0,1,3.33,4.53,35.78,35.78,0,0,1,0,16.8,7.79,7.79,0,0,1-3.33,4.53A12.21,12.21,0,0,1,315.07,838.92Zm0-4.79a5,5,0,0,0,2.2-.44,3.14,3.14,0,0,0,1.39-1.48,8.67,8.67,0,0,0,.74-2.89,50.74,50.74,0,0,0,0-9.44,8.73,8.73,0,0,0-.74-2.91,3.19,3.19,0,0,0-1.39-1.48,5,5,0,0,0-2.2-.43,5.16,5.16,0,0,0-2.25.43,3.28,3.28,0,0,0-1.44,1.48,8.68,8.68,0,0,0-.76,2.91,50.74,50.74,0,0,0,0,9.44,8.62,8.62,0,0,0,.76,2.89,3.23,3.23,0,0,0,1.44,1.48A5.15,5.15,0,0,0,315.11,834.13Z" transform="translate(-151.42 -166.04)"/><path d="M281.27,838.92a12.18,12.18,0,0,1-6.28-1.4,7.83,7.83,0,0,1-3.36-4.53,35.44,35.44,0,0,1,0-16.8,7.83,7.83,0,0,1,3.36-4.53,14.88,14.88,0,0,1,12.56,0,7.76,7.76,0,0,1,3.34,4.53,36.13,36.13,0,0,1,0,16.8,7.76,7.76,0,0,1-3.34,4.53A12.18,12.18,0,0,1,281.27,838.92Zm0-4.79a4.88,4.88,0,0,0,2.19-.44,3.11,3.11,0,0,0,1.4-1.48,8.92,8.92,0,0,0,.74-2.89,50.74,50.74,0,0,0,0-9.44,9,9,0,0,0-.74-2.91,3.16,3.16,0,0,0-1.4-1.48,4.88,4.88,0,0,0-2.19-.43,5.13,5.13,0,0,0-2.25.43,3.28,3.28,0,0,0-1.44,1.48,8.68,8.68,0,0,0-.76,2.91,50.74,50.74,0,0,0,0,9.44,8.62,8.62,0,0,0,.76,2.89,3.23,3.23,0,0,0,1.44,1.48A5.12,5.12,0,0,0,281.31,834.13Z" transform="translate(-151.42 -166.04)"/><path d="M252.45,836.65l3.61-27.29,6,.8-2.57,19.34c-.06.5-.14,1-.23,1.47a9.59,9.59,0,0,1-.4,1.46l6.71-.8.19,4-7.32,1.81Z" transform="translate(-151.42 -166.04)"/><path d="M232.33,831.33l8.24-26.27,5.79,1.81-5.84,18.62c-.15.48-.31,1-.49,1.42a9.76,9.76,0,0,1-.63,1.36l6.74.36-.5,4-7.52.52Z" transform="translate(-151.42 -166.04)"/><path d="M213.37,823.13a12.23,12.23,0,0,1-4.78-4.31,7.85,7.85,0,0,1-.68-5.59,35.37,35.37,0,0,1,8.28-14.62,7.89,7.89,0,0,1,5.15-2.29,12.26,12.26,0,0,1,6.16,1.89,12,12,0,0,1,4.77,4.31,7.73,7.73,0,0,1,.67,5.58,35.84,35.84,0,0,1-8.28,14.62,7.79,7.79,0,0,1-5.13,2.3A12.26,12.26,0,0,1,213.37,823.13Zm2.4-4.14a5,5,0,0,0,2.12.7,3.19,3.19,0,0,0,2-.6,9.11,9.11,0,0,0,2.07-2.15,44.85,44.85,0,0,0,2.52-4,41.78,41.78,0,0,0,2.13-4.2,9,9,0,0,0,.79-2.9,3.11,3.11,0,0,0-.49-2,4.88,4.88,0,0,0-1.69-1.47,5.2,5.2,0,0,0-2.18-.73,3.22,3.22,0,0,0-2,.58,8.48,8.48,0,0,0-2.09,2.16,43.34,43.34,0,0,0-2.51,4,39.18,39.18,0,0,0-2.14,4.22,8.72,8.72,0,0,0-.77,2.89,3.25,3.25,0,0,0,.52,2A5.2,5.2,0,0,0,215.77,819Z" transform="translate(-151.42 -166.04)"/><path d="M189.18,804.52l18.26-20.6,4.54,4L199,802.55c-.34.37-.68.74-1,1.09a9.21,9.21,0,0,1-1.14,1l6,3.08-2.08,3.44-7.08-2.6Z" transform="translate(-151.42 -166.04)"/><path d="M175.22,789.32a12.28,12.28,0,0,1-2.61-5.89,7.87,7.87,0,0,1,1.66-5.39,35.23,35.23,0,0,1,13.51-10,7.86,7.86,0,0,1,5.64,0,12.18,12.18,0,0,1,4.85,4.23,12.06,12.06,0,0,1,2.61,5.88,7.69,7.69,0,0,1-1.67,5.37,28.26,28.26,0,0,1-6.16,5.79,28.76,28.76,0,0,1-7.35,4.19,7.76,7.76,0,0,1-5.62,0A12.17,12.17,0,0,1,175.22,789.32Zm3.88-2.81a5,5,0,0,0,1.65,1.5,3.16,3.16,0,0,0,2,.25,9.15,9.15,0,0,0,2.77-1.13,39.94,39.94,0,0,0,3.93-2.63,41.65,41.65,0,0,0,3.66-3,9.21,9.21,0,0,0,1.91-2.32,3.1,3.1,0,0,0,.35-2,4.88,4.88,0,0,0-.95-2,4.94,4.94,0,0,0-1.69-1.55,3.22,3.22,0,0,0-2-.28,8.45,8.45,0,0,0-2.79,1.12,39.66,39.66,0,0,0-3.92,2.62,41.36,41.36,0,0,0-3.68,3,8.62,8.62,0,0,0-1.87,2.33,3.18,3.18,0,0,0-.34,2A5.1,5.1,0,0,0,179.1,786.51Z" transform="translate(-151.42 -166.04)"/><path d="M160.35,762.79a12.14,12.14,0,0,1-1.07-6.34,7.82,7.82,0,0,1,2.94-4.81,27.74,27.74,0,0,1,7.4-4.1,28.11,28.11,0,0,1,8.16-2.22,7.83,7.83,0,0,1,5.46,1.4A14.84,14.84,0,0,1,188,758.37a7.75,7.75,0,0,1-2.95,4.79,28.5,28.5,0,0,1-7.4,4.08,28.74,28.74,0,0,1-8.16,2.24,7.75,7.75,0,0,1-5.45-1.39A12.17,12.17,0,0,1,160.35,762.79ZM164.8,761A4.81,4.81,0,0,0,166,762.9a3.15,3.15,0,0,0,1.89.74,9,9,0,0,0,3-.41,41.29,41.29,0,0,0,4.46-1.57,40.32,40.32,0,0,0,4.28-2,9,9,0,0,0,2.42-1.77,3.15,3.15,0,0,0,.84-1.85,4.73,4.73,0,0,0-.41-2.2,5.14,5.14,0,0,0-1.26-1.93,3.23,3.23,0,0,0-1.91-.77,8.8,8.8,0,0,0-3,.39,51.2,51.2,0,0,0-8.75,3.55,8.69,8.69,0,0,0-2.39,1.79,3.21,3.21,0,0,0-.83,1.89A5.21,5.21,0,0,0,164.8,761Z" transform="translate(-151.42 -166.04)"/><path d="M153,733.13l27.11-4.76,1.05,6-19.22,3.37c-.49.08-1,.16-1.48.22a9.4,9.4,0,0,1-1.51.06l2.78,6.15-3.76,1.39L154,739.1Z" transform="translate(-151.42 -166.04)"/><path d="M151.42,704.7a12.18,12.18,0,0,1,1.4-6.28,7.81,7.81,0,0,1,4.53-3.35,27.93,27.93,0,0,1,8.4-1,28,28,0,0,1,8.4,1,7.82,7.82,0,0,1,4.52,3.35,14.81,14.81,0,0,1,0,12.57,7.8,7.8,0,0,1-4.52,3.33,28.73,28.73,0,0,1-8.4,1,28.68,28.68,0,0,1-8.4-1,7.79,7.79,0,0,1-4.53-3.33A12.21,12.21,0,0,1,151.42,704.7Zm4.79,0a5,5,0,0,0,.44,2.2,3.09,3.09,0,0,0,1.48,1.39,8.67,8.67,0,0,0,2.89.74,50.64,50.64,0,0,0,9.43,0,8.73,8.73,0,0,0,2.92-.74,3.12,3.12,0,0,0,1.47-1.39,4.82,4.82,0,0,0,.44-2.2,5,5,0,0,0-.44-2.25,3.21,3.21,0,0,0-1.47-1.44,8.68,8.68,0,0,0-2.92-.76,50.64,50.64,0,0,0-9.43,0,8.62,8.62,0,0,0-2.89.76,3.18,3.18,0,0,0-1.48,1.44A5.15,5.15,0,0,0,156.21,704.74Z" transform="translate(-151.42 -166.04)"/><path d="M152,678.51h27.53v6.07H160c-.5,0-1,0-1.5,0a9.68,9.68,0,0,1-1.49-.2l1.67,6.54-4,.72-2.75-7Z" transform="translate(-151.42 -166.04)"/><path d="M152,661.27h27.53v6.06H160c-.5,0-1,0-1.5,0a9.64,9.64,0,0,1-1.49-.19l1.67,6.54-4,.72-2.75-7Z" transform="translate(-151.42 -166.04)"/><path d="M151.42,645a12.18,12.18,0,0,1,1.4-6.28,7.83,7.83,0,0,1,4.53-3.36,28,28,0,0,1,8.4-1,28,28,0,0,1,8.4,1,7.84,7.84,0,0,1,4.52,3.36,14.79,14.79,0,0,1,0,12.56,7.77,7.77,0,0,1-4.52,3.34,28.78,28.78,0,0,1-8.4,1,28.73,28.73,0,0,1-8.4-1,7.76,7.76,0,0,1-4.53-3.34A12.18,12.18,0,0,1,151.42,645Zm4.79,0a4.88,4.88,0,0,0,.44,2.19,3.11,3.11,0,0,0,1.48,1.4,8.92,8.92,0,0,0,2.89.74,50.64,50.64,0,0,0,9.43,0,9,9,0,0,0,2.92-.74,3.13,3.13,0,0,0,1.47-1.4,4.75,4.75,0,0,0,.44-2.19,5.06,5.06,0,0,0-.44-2.26,3.24,3.24,0,0,0-1.47-1.43,8.68,8.68,0,0,0-2.92-.76,50.64,50.64,0,0,0-9.43,0,8.62,8.62,0,0,0-2.89.76,3.21,3.21,0,0,0-1.48,1.43A5.2,5.2,0,0,0,156.21,645.07Z" transform="translate(-151.42 -166.04)"/><path d="M151.42,619.85a12.18,12.18,0,0,1,1.4-6.28,7.83,7.83,0,0,1,4.53-3.36,28.3,28.3,0,0,1,8.4-1,28.35,28.35,0,0,1,8.4,1,7.84,7.84,0,0,1,4.52,3.36,14.79,14.79,0,0,1,0,12.56,7.77,7.77,0,0,1-4.52,3.34,28.78,28.78,0,0,1-8.4,1,28.73,28.73,0,0,1-8.4-1,7.76,7.76,0,0,1-4.53-3.34A12.18,12.18,0,0,1,151.42,619.85Zm4.79,0a4.88,4.88,0,0,0,.44,2.19,3.07,3.07,0,0,0,1.48,1.4,8.92,8.92,0,0,0,2.89.74,50.64,50.64,0,0,0,9.43,0,9,9,0,0,0,2.92-.74,3.09,3.09,0,0,0,1.47-1.4,4.75,4.75,0,0,0,.44-2.19,5,5,0,0,0-.44-2.25,3.21,3.21,0,0,0-1.47-1.44,8.68,8.68,0,0,0-2.92-.76,50.64,50.64,0,0,0-9.43,0,8.62,8.62,0,0,0-2.89.76,3.18,3.18,0,0,0-1.48,1.44A5.12,5.12,0,0,0,156.21,619.89Z" transform="translate(-151.42 -166.04)"/><path d="M152,593.67h27.53v6.07H160c-.5,0-1,0-1.5,0a9.68,9.68,0,0,1-1.49-.2l1.67,6.54-4,.72-2.75-7Z" transform="translate(-151.42 -166.04)"/><path d="M152,576.45h27.53v6.07H160c-.5,0-1,0-1.5,0a11.08,11.08,0,0,1-1.49-.2l1.67,6.54-4,.72-2.75-7Z" transform="translate(-151.42 -166.04)"/><path d="M152,559.21h27.53v6.07H160c-.5,0-1,0-1.5,0A9.68,9.68,0,0,1,157,565l1.67,6.54-4,.72-2.75-7Z" transform="translate(-151.42 -166.04)"/><path d="M151.42,534.35a12.2,12.2,0,0,1,1.4-6.28,7.81,7.81,0,0,1,4.53-3.35,27.93,27.93,0,0,1,8.4-1,28,28,0,0,1,8.4,1,7.82,7.82,0,0,1,4.52,3.35,14.81,14.81,0,0,1,0,12.57,7.75,7.75,0,0,1-4.52,3.33,28.39,28.39,0,0,1-8.4,1,28.35,28.35,0,0,1-8.4-1,7.75,7.75,0,0,1-4.53-3.33A12.21,12.21,0,0,1,151.42,534.35Zm4.79,0a5,5,0,0,0,.44,2.2,3.16,3.16,0,0,0,1.48,1.4,8.94,8.94,0,0,0,2.89.73,50.64,50.64,0,0,0,9.43,0,9,9,0,0,0,2.92-.73,3.18,3.18,0,0,0,1.47-1.4,4.82,4.82,0,0,0,.44-2.2,5,5,0,0,0-.44-2.25,3.21,3.21,0,0,0-1.47-1.44,8.47,8.47,0,0,0-2.92-.75,50.64,50.64,0,0,0-9.43,0,8.41,8.41,0,0,0-2.89.75,3.18,3.18,0,0,0-1.48,1.44A5.15,5.15,0,0,0,156.21,534.39Z" transform="translate(-151.42 -166.04)"/><path d="M152,508.17h27.53v6.06H160c-.5,0-1,0-1.5,0A8.59,8.59,0,0,1,157,514l1.67,6.55-4,.71-2.75-7Z" transform="translate(-151.42 -166.04)"/><path d="M152,490.94h27.53V497H160c-.5,0-1,0-1.5,0a9.68,9.68,0,0,1-1.49-.2l1.67,6.54-4,.72L152,497Z" transform="translate(-151.42 -166.04)"/><path d="M151.42,474.69a12.18,12.18,0,0,1,1.4-6.28,7.83,7.83,0,0,1,4.53-3.36,28.3,28.3,0,0,1,8.4-1,28.35,28.35,0,0,1,8.4,1,7.84,7.84,0,0,1,4.52,3.36,14.79,14.79,0,0,1,0,12.56,7.77,7.77,0,0,1-4.52,3.34,28.78,28.78,0,0,1-8.4,1,28.73,28.73,0,0,1-8.4-1,7.76,7.76,0,0,1-4.53-3.34A12.18,12.18,0,0,1,151.42,474.69Zm4.79,0a4.88,4.88,0,0,0,.44,2.19,3.07,3.07,0,0,0,1.48,1.4,8.92,8.92,0,0,0,2.89.74,50.64,50.64,0,0,0,9.43,0,9,9,0,0,0,2.92-.74,3.09,3.09,0,0,0,1.47-1.4,4.75,4.75,0,0,0,.44-2.19,5,5,0,0,0-.44-2.25,3.21,3.21,0,0,0-1.47-1.44,8.68,8.68,0,0,0-2.92-.76,50.64,50.64,0,0,0-9.43,0,8.62,8.62,0,0,0-2.89.76,3.18,3.18,0,0,0-1.48,1.44A5.12,5.12,0,0,0,156.21,474.73Z" transform="translate(-151.42 -166.04)"/><path d="M152,448.51h27.53v6.06H160c-.5,0-1,0-1.5,0a9.68,9.68,0,0,1-1.49-.2l1.67,6.54-4,.72-2.75-7Z" transform="translate(-151.42 -166.04)"/><path d="M151.42,432.25a12.18,12.18,0,0,1,1.4-6.28,7.83,7.83,0,0,1,4.53-3.36,28.3,28.3,0,0,1,8.4-1,28.35,28.35,0,0,1,8.4,1,7.84,7.84,0,0,1,4.52,3.36,14.79,14.79,0,0,1,0,12.56,7.77,7.77,0,0,1-4.52,3.34,28.78,28.78,0,0,1-8.4,1,28.73,28.73,0,0,1-8.4-1,7.76,7.76,0,0,1-4.53-3.34A12.18,12.18,0,0,1,151.42,432.25Zm4.79,0a4.88,4.88,0,0,0,.44,2.19,3.07,3.07,0,0,0,1.48,1.4,8.92,8.92,0,0,0,2.89.74,50.64,50.64,0,0,0,9.43,0,9,9,0,0,0,2.92-.74,3.09,3.09,0,0,0,1.47-1.4,4.75,4.75,0,0,0,.44-2.19,5,5,0,0,0-.44-2.25,3.21,3.21,0,0,0-1.47-1.44,8.68,8.68,0,0,0-2.92-.76,50.64,50.64,0,0,0-9.43,0,8.62,8.62,0,0,0-2.89.76,3.18,3.18,0,0,0-1.48,1.44A5.12,5.12,0,0,0,156.21,432.29Z" transform="translate(-151.42 -166.04)"/><path d="M151.42,407.08a12.18,12.18,0,0,1,1.4-6.28,7.77,7.77,0,0,1,4.53-3.35,27.93,27.93,0,0,1,8.4-1,28,28,0,0,1,8.4,1,7.78,7.78,0,0,1,4.52,3.35,14.81,14.81,0,0,1,0,12.57,7.8,7.8,0,0,1-4.52,3.33,28.73,28.73,0,0,1-8.4,1,28.68,28.68,0,0,1-8.4-1,7.79,7.79,0,0,1-4.53-3.33A12.21,12.21,0,0,1,151.42,407.08Zm4.79,0a5,5,0,0,0,.44,2.2,3.09,3.09,0,0,0,1.48,1.39,8.67,8.67,0,0,0,2.89.74,50.64,50.64,0,0,0,9.43,0,8.73,8.73,0,0,0,2.92-.74,3.12,3.12,0,0,0,1.47-1.39,4.82,4.82,0,0,0,.44-2.2,5,5,0,0,0-.44-2.25,3.21,3.21,0,0,0-1.47-1.44,8.68,8.68,0,0,0-2.92-.76,50.64,50.64,0,0,0-9.43,0,8.62,8.62,0,0,0-2.89.76,3.18,3.18,0,0,0-1.48,1.44A5.15,5.15,0,0,0,156.21,407.12Z" transform="translate(-151.42 -166.04)"/><path d="M152,380.92h27.53V387H160c-.5,0-1,0-1.5,0a9.68,9.68,0,0,1-1.49-.2l1.67,6.55-4,.71L152,387Z" transform="translate(-151.42 -166.04)"/><path d="M151.42,356.05a12.24,12.24,0,0,1,1.4-6.29,7.86,7.86,0,0,1,4.53-3.35,28,28,0,0,1,8.4-1,28,28,0,0,1,8.4,1,7.86,7.86,0,0,1,4.52,3.35,14.81,14.81,0,0,1,0,12.57,7.71,7.71,0,0,1-4.52,3.33,28.39,28.39,0,0,1-8.4,1,28.35,28.35,0,0,1-8.4-1,7.71,7.71,0,0,1-4.53-3.33A12.18,12.18,0,0,1,151.42,356.05Zm4.79,0a4.88,4.88,0,0,0,.44,2.19,3.11,3.11,0,0,0,1.48,1.4,9.18,9.18,0,0,0,2.89.74,50.64,50.64,0,0,0,9.43,0,9.24,9.24,0,0,0,2.92-.74,3.13,3.13,0,0,0,1.47-1.4,4.75,4.75,0,0,0,.44-2.19,5,5,0,0,0-.44-2.26,3.24,3.24,0,0,0-1.47-1.43,8.68,8.68,0,0,0-2.92-.76,50.64,50.64,0,0,0-9.43,0,8.62,8.62,0,0,0-2.89.76,3.21,3.21,0,0,0-1.48,1.43A5.17,5.17,0,0,0,156.21,356.09Z" transform="translate(-151.42 -166.04)"/><path d="M152,329.86h27.53v6.06H160c-.5,0-1,0-1.5,0a9.64,9.64,0,0,1-1.49-.19l1.67,6.54-4,.72-2.75-7Z" transform="translate(-151.42 -166.04)"/><path d="M152,312.62h27.53v6.06H160c-.5,0-1,0-1.5,0a9.68,9.68,0,0,1-1.49-.2l1.67,6.54-4,.72-2.75-7Z" transform="translate(-151.42 -166.04)"/><path d="M152,295.38h27.53v6.07H160c-.5,0-1,0-1.5,0a11.08,11.08,0,0,1-1.49-.2l1.67,6.54-4,.72-2.75-7Z" transform="translate(-151.42 -166.04)"/><path d="M151.89,277.31a12.21,12.21,0,0,1,1.94-6.14,7.79,7.79,0,0,1,4.8-2.94,28,28,0,0,1,8.46-.29,28,28,0,0,1,8.28,1.75,7.85,7.85,0,0,1,4.22,3.74,14.85,14.85,0,0,1-1.1,12.52,7.72,7.72,0,0,1-4.8,2.92,28.48,28.48,0,0,1-8.46.26A28.6,28.6,0,0,1,157,287.4a7.73,7.73,0,0,1-4.22-3.71A12.2,12.2,0,0,1,151.89,277.31Zm4.77.45a4.87,4.87,0,0,0,.24,2.23,3.16,3.16,0,0,0,1.35,1.52,9.3,9.3,0,0,0,2.82,1,43.15,43.15,0,0,0,4.69.63,42,42,0,0,0,4.71.19,9.14,9.14,0,0,0,3-.48,3.21,3.21,0,0,0,1.6-1.26,5,5,0,0,0,.63-2.15,5.37,5.37,0,0,0-.24-2.28,3.16,3.16,0,0,0-1.35-1.56,8.48,8.48,0,0,0-2.84-1,39.14,39.14,0,0,0-4.67-.63,40.56,40.56,0,0,0-4.73-.2,8.55,8.55,0,0,0-2.94.51,3.18,3.18,0,0,0-1.6,1.3A5.15,5.15,0,0,0,156.66,277.76Z" transform="translate(-151.42 -166.04)"/><path d="M158.81,247.52l26.31,8.11-1.79,5.8-18.65-5.75q-.72-.23-1.41-.48a9.37,9.37,0,0,1-1.37-.63l-.33,6.75-4-.48-.56-7.52Z" transform="translate(-151.42 -166.04)"/><path d="M166.91,228.52a12.31,12.31,0,0,1,4.29-4.81,7.84,7.84,0,0,1,5.59-.71,35.39,35.39,0,0,1,14.66,8.21,7.83,7.83,0,0,1,2.31,5.14,14.82,14.82,0,0,1-6.14,11,7.71,7.71,0,0,1-5.58.7,36,36,0,0,1-14.66-8.21,7.77,7.77,0,0,1-2.32-5.12A12.14,12.14,0,0,1,166.91,228.52Zm4.16,2.37a4.9,4.9,0,0,0-.69,2.13A3.13,3.13,0,0,0,171,235a9,9,0,0,0,2.16,2.06,51.47,51.47,0,0,0,8.23,4.61,9.21,9.21,0,0,0,2.9.78,3.16,3.16,0,0,0,2-.5,4.89,4.89,0,0,0,1.46-1.7,5.21,5.21,0,0,0,.72-2.18,3.2,3.2,0,0,0-.59-2,8.71,8.71,0,0,0-2.17-2.08,40.7,40.7,0,0,0-4-2.49,39.44,39.44,0,0,0-4.23-2.12,8.72,8.72,0,0,0-2.9-.76,3.25,3.25,0,0,0-2,.54A5.16,5.16,0,0,0,171.07,230.89Z" transform="translate(-151.42 -166.04)"/><path d="M184.94,204.05a12.3,12.3,0,0,1,5.34-3.6,7.82,7.82,0,0,1,5.6.69,28.2,28.2,0,0,1,6.79,5.05,27.75,27.75,0,0,1,5.38,6.52,7.8,7.8,0,0,1,1,5.55,14.84,14.84,0,0,1-8.66,9.11,7.74,7.74,0,0,1-5.57-.7,28.61,28.61,0,0,1-6.78-5.06,28.31,28.31,0,0,1-5.4-6.51,7.73,7.73,0,0,1-1-5.54A12.08,12.08,0,0,1,184.94,204.05Zm3.45,3.32a4.85,4.85,0,0,0-1.2,1.9,3.15,3.15,0,0,0,.11,2,9.29,9.29,0,0,0,1.59,2.53,50.77,50.77,0,0,0,6.84,6.5,8.81,8.81,0,0,0,2.62,1.47,3.17,3.17,0,0,0,2,0,5.83,5.83,0,0,0,3.06-3.23,3.26,3.26,0,0,0-.08-2.06,8.88,8.88,0,0,0-1.59-2.55,49.31,49.31,0,0,0-6.84-6.5,8.67,8.67,0,0,0-2.62-1.45,3.28,3.28,0,0,0-2.06,0A5.08,5.08,0,0,0,188.39,207.37Z" transform="translate(-151.42 -166.04)"/><path d="M217.52,179.58a12.19,12.19,0,0,1,6.22-1.64,7.8,7.8,0,0,1,5.06,2.49,28.15,28.15,0,0,1,4.76,7,27.83,27.83,0,0,1,2.94,7.94,7.78,7.78,0,0,1-.9,5.56,14.82,14.82,0,0,1-11.17,5.76,7.75,7.75,0,0,1-5-2.5,36,36,0,0,1-7.7-14.92,7.74,7.74,0,0,1,.89-5.56A12.16,12.16,0,0,1,217.52,179.58Zm2.16,4.27a5,5,0,0,0-1.75,1.4,3.12,3.12,0,0,0-.56,1.95,8.85,8.85,0,0,0,.67,2.91,39.18,39.18,0,0,0,2,4.3,44.14,44.14,0,0,0,2.35,4.09,9.21,9.21,0,0,0,2,2.25,3.15,3.15,0,0,0,1.91.67,4.83,4.83,0,0,0,2.16-.62,5.16,5.16,0,0,0,1.8-1.42,3.2,3.2,0,0,0,.6-2,8.79,8.79,0,0,0-.66-2.94,42.51,42.51,0,0,0-2-4.28,43.52,43.52,0,0,0-2.36-4.1,8.69,8.69,0,0,0-2-2.23,3.26,3.26,0,0,0-2-.65A5.25,5.25,0,0,0,219.68,183.85Z" transform="translate(-151.42 -166.04)"/><path d="M246.37,169.53l7.2,26.57-5.85,1.59-5.11-18.84c-.13-.48-.25-1-.35-1.45a10.23,10.23,0,0,1-.2-1.5l-5.87,3.33-1.73-3.62,6.06-4.5Z" transform="translate(-151.42 -166.04)"/><path d="M267,166.67l2.56,27.41-6,.56-1.81-19.42c-.05-.51-.08-1-.1-1.5a9.68,9.68,0,0,1,.06-1.51l-6.36,2.28-1.08-3.87,6.73-3.39Z" transform="translate(-151.42 -166.04)"/><path d="M285.15,166a12.21,12.21,0,0,1,6.29,1.4,7.86,7.86,0,0,1,3.35,4.53,35.06,35.06,0,0,1,0,16.79,7.86,7.86,0,0,1-3.35,4.53,14.81,14.81,0,0,1-12.57,0,7.71,7.71,0,0,1-3.33-4.53,35.74,35.74,0,0,1,0-16.79,7.71,7.71,0,0,1,3.33-4.53A12.18,12.18,0,0,1,285.15,166Zm0,4.79a4.88,4.88,0,0,0-2.19.44,3.13,3.13,0,0,0-1.4,1.47,9.33,9.33,0,0,0-.74,2.9,50.64,50.64,0,0,0,0,9.43,9.4,9.4,0,0,0,.74,2.92,3.13,3.13,0,0,0,1.4,1.47,4.88,4.88,0,0,0,2.19.44,5.17,5.17,0,0,0,2.26-.44A3.19,3.19,0,0,0,288.8,188a8.58,8.58,0,0,0,.76-2.92,50.64,50.64,0,0,0,0-9.43,8.52,8.52,0,0,0-.76-2.9,3.19,3.19,0,0,0-1.43-1.47A5.17,5.17,0,0,0,285.11,170.83Z" transform="translate(-151.42 -166.04)"/><path d="M310.33,166a12.21,12.21,0,0,1,6.29,1.4A7.86,7.86,0,0,1,320,172a35.06,35.06,0,0,1,0,16.79,7.86,7.86,0,0,1-3.35,4.53,14.81,14.81,0,0,1-12.57,0,7.71,7.71,0,0,1-3.33-4.53,35.74,35.74,0,0,1,0-16.79,7.71,7.71,0,0,1,3.33-4.53A12.2,12.2,0,0,1,310.33,166Zm0,4.79a4.91,4.91,0,0,0-2.19.44,3.13,3.13,0,0,0-1.4,1.47,9.33,9.33,0,0,0-.74,2.9,53,53,0,0,0,0,9.43,9.4,9.4,0,0,0,.74,2.92,3.13,3.13,0,0,0,1.4,1.47,4.91,4.91,0,0,0,2.19.44,5.17,5.17,0,0,0,2.26-.44A3.14,3.14,0,0,0,314,188a8.58,8.58,0,0,0,.76-2.92,50.64,50.64,0,0,0,0-9.43,8.52,8.52,0,0,0-.76-2.9,3.14,3.14,0,0,0-1.43-1.47A5.17,5.17,0,0,0,310.29,170.83Z" transform="translate(-151.42 -166.04)"/><path d="M335.49,166a12.18,12.18,0,0,1,6.28,1.4,7.83,7.83,0,0,1,3.36,4.53,35.39,35.39,0,0,1,0,16.79,7.83,7.83,0,0,1-3.36,4.53,14.79,14.79,0,0,1-12.56,0,7.71,7.71,0,0,1-3.33-4.53,35.74,35.74,0,0,1,0-16.79,7.71,7.71,0,0,1,3.33-4.53A12.18,12.18,0,0,1,335.49,166Zm0,4.79a4.88,4.88,0,0,0-2.19.44,3.13,3.13,0,0,0-1.4,1.47,9.06,9.06,0,0,0-.74,2.9,50.64,50.64,0,0,0,0,9.43,9.12,9.12,0,0,0,.74,2.92,3.13,3.13,0,0,0,1.4,1.47,4.88,4.88,0,0,0,2.19.44,5.2,5.2,0,0,0,2.26-.44,3.24,3.24,0,0,0,1.43-1.47,8.82,8.82,0,0,0,.76-2.92,50.64,50.64,0,0,0,0-9.43,8.75,8.75,0,0,0-.76-2.9,3.24,3.24,0,0,0-1.43-1.47A5.2,5.2,0,0,0,335.45,170.83Z" transform="translate(-151.42 -166.04)"/><path d="M360.69,166a12.2,12.2,0,0,1,6.28,1.4,7.81,7.81,0,0,1,3.35,4.53,35.06,35.06,0,0,1,0,16.79,7.81,7.81,0,0,1-3.35,4.53,14.81,14.81,0,0,1-12.57,0,7.71,7.71,0,0,1-3.33-4.53,35.74,35.74,0,0,1,0-16.79,7.71,7.71,0,0,1,3.33-4.53A12.21,12.21,0,0,1,360.69,166Zm0,4.79a5,5,0,0,0-2.2.44,3.18,3.18,0,0,0-1.4,1.47,9.08,9.08,0,0,0-.73,2.9,50.64,50.64,0,0,0,0,9.43,9.15,9.15,0,0,0,.73,2.92,3.18,3.18,0,0,0,1.4,1.47,5,5,0,0,0,2.2.44,5.15,5.15,0,0,0,2.25-.44,3.21,3.21,0,0,0,1.44-1.47,8.6,8.6,0,0,0,.75-2.92,50.64,50.64,0,0,0,0-9.43,8.54,8.54,0,0,0-.75-2.9,3.21,3.21,0,0,0-1.44-1.47A5.15,5.15,0,0,0,360.65,170.83Z" transform="translate(-151.42 -166.04)"/><path d="M386.86,166.6v27.53h-6.07V174.62c0-.51,0-1,0-1.5a9.68,9.68,0,0,1,.2-1.49l-6.54,1.67-.72-4,7-2.75Z" transform="translate(-151.42 -166.04)"/><path d="M411.73,166a12.18,12.18,0,0,1,6.28,1.4,7.83,7.83,0,0,1,3.36,4.53,35.39,35.39,0,0,1,0,16.79,7.83,7.83,0,0,1-3.36,4.53,14.79,14.79,0,0,1-12.56,0,7.76,7.76,0,0,1-3.34-4.53,36.09,36.09,0,0,1,0-16.79,7.76,7.76,0,0,1,3.34-4.53A12.18,12.18,0,0,1,411.73,166Zm0,4.79a4.88,4.88,0,0,0-2.19.44,3.09,3.09,0,0,0-1.4,1.47,9.06,9.06,0,0,0-.74,2.9,50.64,50.64,0,0,0,0,9.43,9.12,9.12,0,0,0,.74,2.92,3.09,3.09,0,0,0,1.4,1.47,4.88,4.88,0,0,0,2.19.44,5.12,5.12,0,0,0,2.25-.44,3.21,3.21,0,0,0,1.44-1.47,8.82,8.82,0,0,0,.76-2.92,50.64,50.64,0,0,0,0-9.43,8.75,8.75,0,0,0-.76-2.9,3.21,3.21,0,0,0-1.44-1.47A5.12,5.12,0,0,0,411.69,170.83Z" transform="translate(-151.42 -166.04)"/><path d="M437.89,166.6v27.53h-6.06V174.62c0-.51,0-1,0-1.5a8.59,8.59,0,0,1,.2-1.49l-6.55,1.67-.71-4,7-2.75Z" transform="translate(-151.42 -166.04)"/><path d="M455.15,166.6v27.53h-6.07V174.62c0-.51,0-1,0-1.5a11.08,11.08,0,0,1,.2-1.49l-6.54,1.67-.72-4,7-2.75Z" transform="translate(-151.42 -166.04)"/><path d="M471.37,166a12.21,12.21,0,0,1,6.29,1.4A7.86,7.86,0,0,1,481,172a35.06,35.06,0,0,1,0,16.79,7.86,7.86,0,0,1-3.35,4.53,14.81,14.81,0,0,1-12.57,0,7.71,7.71,0,0,1-3.33-4.53,35.74,35.74,0,0,1,0-16.79,7.71,7.71,0,0,1,3.33-4.53A12.2,12.2,0,0,1,471.37,166Zm0,4.79a4.91,4.91,0,0,0-2.19.44,3.13,3.13,0,0,0-1.4,1.47,9.33,9.33,0,0,0-.74,2.9,53,53,0,0,0,0,9.43,9.4,9.4,0,0,0,.74,2.92,3.13,3.13,0,0,0,1.4,1.47,4.91,4.91,0,0,0,2.19.44,5.17,5.17,0,0,0,2.26-.44A3.14,3.14,0,0,0,475,188a8.58,8.58,0,0,0,.76-2.92,50.64,50.64,0,0,0,0-9.43,8.52,8.52,0,0,0-.76-2.9,3.14,3.14,0,0,0-1.43-1.47A5.17,5.17,0,0,0,471.33,170.83Z" transform="translate(-151.42 -166.04)"/><path d="M497.56,166.6v27.53H491.5V174.62c0-.51,0-1,0-1.5a8.59,8.59,0,0,1,.2-1.49l-6.55,1.67-.72-4,7-2.75Z" transform="translate(-151.42 -166.04)"/><path d="M514.79,166.6v27.53h-6.06V174.62c0-.51,0-1,0-1.5a8.59,8.59,0,0,1,.2-1.49l-6.55,1.67-.72-4,7-2.75Z" transform="translate(-151.42 -166.04)"/><path d="M531,166a12.18,12.18,0,0,1,6.28,1.4,7.83,7.83,0,0,1,3.36,4.53,35.39,35.39,0,0,1,0,16.79,7.83,7.83,0,0,1-3.36,4.53,14.79,14.79,0,0,1-12.56,0,7.76,7.76,0,0,1-3.34-4.53,36.09,36.09,0,0,1,0-16.79,7.76,7.76,0,0,1,3.34-4.53A12.18,12.18,0,0,1,531,166Zm0,4.79a5,5,0,0,0-2.2.44,3.12,3.12,0,0,0-1.39,1.47,9.06,9.06,0,0,0-.74,2.9,50.64,50.64,0,0,0,0,9.43,9.12,9.12,0,0,0,.74,2.92,3.12,3.12,0,0,0,1.39,1.47,5,5,0,0,0,2.2.44,5.12,5.12,0,0,0,2.25-.44,3.21,3.21,0,0,0,1.44-1.47,8.82,8.82,0,0,0,.76-2.92,50.64,50.64,0,0,0,0-9.43,8.75,8.75,0,0,0-.76-2.9,3.21,3.21,0,0,0-1.44-1.47A5.12,5.12,0,0,0,531,170.83Z" transform="translate(-151.42 -166.04)"/><path d="M556.23,166a12.18,12.18,0,0,1,6.28,1.4,7.83,7.83,0,0,1,3.36,4.53,35.39,35.39,0,0,1,0,16.79,7.83,7.83,0,0,1-3.36,4.53,14.79,14.79,0,0,1-12.56,0,7.76,7.76,0,0,1-3.34-4.53,36.09,36.09,0,0,1,0-16.79,7.76,7.76,0,0,1,3.34-4.53A12.18,12.18,0,0,1,556.23,166Zm0,4.79a4.88,4.88,0,0,0-2.19.44,3.09,3.09,0,0,0-1.4,1.47,9.06,9.06,0,0,0-.74,2.9,50.64,50.64,0,0,0,0,9.43,9.12,9.12,0,0,0,.74,2.92,3.09,3.09,0,0,0,1.4,1.47,4.88,4.88,0,0,0,2.19.44,5.12,5.12,0,0,0,2.25-.44,3.21,3.21,0,0,0,1.44-1.47,8.82,8.82,0,0,0,.76-2.92,50.64,50.64,0,0,0,0-9.43,8.75,8.75,0,0,0-.76-2.9,3.21,3.21,0,0,0-1.44-1.47A5.12,5.12,0,0,0,556.19,170.83Z" transform="translate(-151.42 -166.04)"/><path d="M590,166a12.18,12.18,0,0,1,6.28,1.4,7.83,7.83,0,0,1,3.36,4.53,35.39,35.39,0,0,1,0,16.79,7.83,7.83,0,0,1-3.36,4.53,14.79,14.79,0,0,1-12.56,0,7.71,7.71,0,0,1-3.33-4.53,35.74,35.74,0,0,1,0-16.79,7.71,7.71,0,0,1,3.33-4.53A12.18,12.18,0,0,1,590,166Zm0,4.79a4.88,4.88,0,0,0-2.19.44,3.13,3.13,0,0,0-1.4,1.47,9.06,9.06,0,0,0-.74,2.9,50.64,50.64,0,0,0,0,9.43,9.12,9.12,0,0,0,.74,2.92,3.13,3.13,0,0,0,1.4,1.47,4.88,4.88,0,0,0,2.19.44,5.17,5.17,0,0,0,2.26-.44,3.24,3.24,0,0,0,1.43-1.47,8.82,8.82,0,0,0,.76-2.92,50.64,50.64,0,0,0,0-9.43,8.75,8.75,0,0,0-.76-2.9,3.24,3.24,0,0,0-1.43-1.47A5.17,5.17,0,0,0,590,170.83Z" transform="translate(-151.42 -166.04)"/><path d="M615.2,166a12.21,12.21,0,0,1,6.29,1.4,7.86,7.86,0,0,1,3.35,4.53,35.06,35.06,0,0,1,0,16.79,7.86,7.86,0,0,1-3.35,4.53,14.81,14.81,0,0,1-12.57,0,7.71,7.71,0,0,1-3.33-4.53,35.74,35.74,0,0,1,0-16.79,7.71,7.71,0,0,1,3.33-4.53A12.2,12.2,0,0,1,615.2,166Zm0,4.79a4.91,4.91,0,0,0-2.19.44,3.13,3.13,0,0,0-1.4,1.47,9.33,9.33,0,0,0-.74,2.9,53,53,0,0,0,0,9.43,9.4,9.4,0,0,0,.74,2.92,3.13,3.13,0,0,0,1.4,1.47,4.91,4.91,0,0,0,2.19.44,5.17,5.17,0,0,0,2.26-.44,3.14,3.14,0,0,0,1.43-1.47,8.58,8.58,0,0,0,.76-2.92,50.64,50.64,0,0,0,0-9.43,8.52,8.52,0,0,0-.76-2.9,3.14,3.14,0,0,0-1.43-1.47A5.17,5.17,0,0,0,615.16,170.83Z" transform="translate(-151.42 -166.04)"/><path d="M641.37,166.6v27.53h-6.06V174.62c0-.51,0-1,0-1.5a8.59,8.59,0,0,1,.2-1.49L629,173.3l-.72-4,7-2.75Z" transform="translate(-151.42 -166.04)"/><path d="M657.62,166a12.21,12.21,0,0,1,6.29,1.4,7.86,7.86,0,0,1,3.35,4.53,35.06,35.06,0,0,1,0,16.79,7.86,7.86,0,0,1-3.35,4.53,14.81,14.81,0,0,1-12.57,0,7.71,7.71,0,0,1-3.33-4.53A35.74,35.74,0,0,1,648,172a7.71,7.71,0,0,1,3.33-4.53A12.2,12.2,0,0,1,657.62,166Zm0,4.79a4.91,4.91,0,0,0-2.19.44,3.13,3.13,0,0,0-1.4,1.47,9.33,9.33,0,0,0-.74,2.9,53,53,0,0,0,0,9.43A9.4,9.4,0,0,0,654,188a3.13,3.13,0,0,0,1.4,1.47,4.91,4.91,0,0,0,2.19.44,5.17,5.17,0,0,0,2.26-.44,3.14,3.14,0,0,0,1.43-1.47,8.58,8.58,0,0,0,.76-2.92,50.64,50.64,0,0,0,0-9.43,8.52,8.52,0,0,0-.76-2.9,3.14,3.14,0,0,0-1.43-1.47A5.17,5.17,0,0,0,657.58,170.83Z" transform="translate(-151.42 -166.04)"/><path d="M682.8,166a12.18,12.18,0,0,1,6.28,1.4,7.83,7.83,0,0,1,3.36,4.53,35.39,35.39,0,0,1,0,16.79,7.83,7.83,0,0,1-3.36,4.53,14.79,14.79,0,0,1-12.56,0,7.76,7.76,0,0,1-3.34-4.53,36.09,36.09,0,0,1,0-16.79,7.76,7.76,0,0,1,3.34-4.53A12.18,12.18,0,0,1,682.8,166Zm0,4.79a5,5,0,0,0-2.2.44,3.12,3.12,0,0,0-1.39,1.47,9.06,9.06,0,0,0-.74,2.9,50.64,50.64,0,0,0,0,9.43,9.12,9.12,0,0,0,.74,2.92,3.12,3.12,0,0,0,1.39,1.47,5,5,0,0,0,2.2.44,5.12,5.12,0,0,0,2.25-.44,3.21,3.21,0,0,0,1.44-1.47,8.82,8.82,0,0,0,.76-2.92,50.64,50.64,0,0,0,0-9.43,8.75,8.75,0,0,0-.76-2.9,3.21,3.21,0,0,0-1.44-1.47A5.12,5.12,0,0,0,682.76,170.83Z" transform="translate(-151.42 -166.04)"/><path d="M708,166a12.21,12.21,0,0,1,6.29,1.4,7.86,7.86,0,0,1,3.35,4.53,35.06,35.06,0,0,1,0,16.79,7.86,7.86,0,0,1-3.35,4.53,14.81,14.81,0,0,1-12.57,0,7.71,7.71,0,0,1-3.33-4.53,35.74,35.74,0,0,1,0-16.79,7.71,7.71,0,0,1,3.33-4.53A12.2,12.2,0,0,1,708,166Zm0,4.79a4.91,4.91,0,0,0-2.19.44,3.13,3.13,0,0,0-1.4,1.47,9.33,9.33,0,0,0-.74,2.9,53,53,0,0,0,0,9.43,9.4,9.4,0,0,0,.74,2.92,3.13,3.13,0,0,0,1.4,1.47,4.91,4.91,0,0,0,2.19.44,5.17,5.17,0,0,0,2.26-.44,3.14,3.14,0,0,0,1.43-1.47,8.58,8.58,0,0,0,.76-2.92,50.64,50.64,0,0,0,0-9.43,8.52,8.52,0,0,0-.76-2.9,3.14,3.14,0,0,0-1.43-1.47A5.17,5.17,0,0,0,707.93,170.83Z" transform="translate(-151.42 -166.04)"/><path d="M733.15,166a12.21,12.21,0,0,1,6.29,1.4,7.86,7.86,0,0,1,3.35,4.53,35.06,35.06,0,0,1,0,16.79,7.86,7.86,0,0,1-3.35,4.53,14.81,14.81,0,0,1-12.57,0,7.71,7.71,0,0,1-3.33-4.53,35.74,35.74,0,0,1,0-16.79,7.71,7.71,0,0,1,3.33-4.53A12.18,12.18,0,0,1,733.15,166Zm0,4.79a4.91,4.91,0,0,0-2.19.44,3.13,3.13,0,0,0-1.4,1.47,9.33,9.33,0,0,0-.74,2.9,50.64,50.64,0,0,0,0,9.43,9.4,9.4,0,0,0,.74,2.92,3.13,3.13,0,0,0,1.4,1.47,4.91,4.91,0,0,0,2.19.44,5.17,5.17,0,0,0,2.26-.44A3.19,3.19,0,0,0,736.8,188a8.58,8.58,0,0,0,.76-2.92,50.64,50.64,0,0,0,0-9.43,8.52,8.52,0,0,0-.76-2.9,3.19,3.19,0,0,0-1.43-1.47A5.17,5.17,0,0,0,733.11,170.83Z" transform="translate(-151.42 -166.04)"/><path d="M758.35,166a12.24,12.24,0,0,1,6.29,1.4A7.86,7.86,0,0,1,768,172a35.39,35.39,0,0,1,0,16.79,7.86,7.86,0,0,1-3.35,4.53,14.81,14.81,0,0,1-12.57,0,7.71,7.71,0,0,1-3.33-4.53,35.74,35.74,0,0,1,0-16.79,7.71,7.71,0,0,1,3.33-4.53A12.18,12.18,0,0,1,758.35,166Zm0,4.79a4.88,4.88,0,0,0-2.19.44,3.13,3.13,0,0,0-1.4,1.47,9.06,9.06,0,0,0-.74,2.9,50.64,50.64,0,0,0,0,9.43,9.12,9.12,0,0,0,.74,2.92,3.13,3.13,0,0,0,1.4,1.47,4.88,4.88,0,0,0,2.19.44,5.17,5.17,0,0,0,2.26-.44A3.24,3.24,0,0,0,762,188a8.82,8.82,0,0,0,.76-2.92,50.64,50.64,0,0,0,0-9.43,8.75,8.75,0,0,0-.76-2.9,3.24,3.24,0,0,0-1.43-1.47A5.17,5.17,0,0,0,758.31,170.83Z" transform="translate(-151.42 -166.04)"/><path d="M792.15,166a12.21,12.21,0,0,1,6.29,1.4,7.81,7.81,0,0,1,3.35,4.53,35.06,35.06,0,0,1,0,16.79,7.81,7.81,0,0,1-3.35,4.53,14.81,14.81,0,0,1-12.57,0,7.71,7.71,0,0,1-3.33-4.53,35.74,35.74,0,0,1,0-16.79,7.71,7.71,0,0,1,3.33-4.53A12.2,12.2,0,0,1,792.15,166Zm0,4.79a5,5,0,0,0-2.2.44,3.13,3.13,0,0,0-1.4,1.47,9.08,9.08,0,0,0-.73,2.9,50.64,50.64,0,0,0,0,9.43,9.15,9.15,0,0,0,.73,2.92,3.13,3.13,0,0,0,1.4,1.47,5,5,0,0,0,2.2.44,5.15,5.15,0,0,0,2.25-.44,3.21,3.21,0,0,0,1.44-1.47,8.6,8.6,0,0,0,.75-2.92,50.64,50.64,0,0,0,0-9.43,8.54,8.54,0,0,0-.75-2.9,3.21,3.21,0,0,0-1.44-1.47A5.15,5.15,0,0,0,792.12,170.83Z" transform="translate(-151.42 -166.04)"/><path d="M818.32,166.6v27.53h-6.06V174.62c0-.51,0-1,0-1.5a8.59,8.59,0,0,1,.2-1.49L806,173.3l-.72-4,7-2.75Z" transform="translate(-151.42 -166.04)"/><path d="M834.57,166a12.21,12.21,0,0,1,6.29,1.4,7.86,7.86,0,0,1,3.35,4.53,35.06,35.06,0,0,1,0,16.79,7.86,7.86,0,0,1-3.35,4.53,14.81,14.81,0,0,1-12.57,0,7.71,7.71,0,0,1-3.33-4.53A35.74,35.74,0,0,1,825,172a7.71,7.71,0,0,1,3.33-4.53A12.18,12.18,0,0,1,834.57,166Zm0,4.79a4.88,4.88,0,0,0-2.19.44,3.13,3.13,0,0,0-1.4,1.47,9.33,9.33,0,0,0-.74,2.9,50.64,50.64,0,0,0,0,9.43,9.4,9.4,0,0,0,.74,2.92,3.13,3.13,0,0,0,1.4,1.47,4.88,4.88,0,0,0,2.19.44,5.17,5.17,0,0,0,2.26-.44,3.24,3.24,0,0,0,1.43-1.47,8.82,8.82,0,0,0,.76-2.92,50.64,50.64,0,0,0,0-9.43,8.75,8.75,0,0,0-.76-2.9,3.24,3.24,0,0,0-1.43-1.47A5.17,5.17,0,0,0,834.53,170.83Z" transform="translate(-151.42 -166.04)"/><path d="M859.73,166a12.21,12.21,0,0,1,6.29,1.4,7.86,7.86,0,0,1,3.35,4.53,35.06,35.06,0,0,1,0,16.79,7.86,7.86,0,0,1-3.35,4.53,14.81,14.81,0,0,1-12.57,0,7.71,7.71,0,0,1-3.33-4.53,35.74,35.74,0,0,1,0-16.79,7.71,7.71,0,0,1,3.33-4.53A12.18,12.18,0,0,1,859.73,166Zm0,4.79a4.88,4.88,0,0,0-2.19.44,3.13,3.13,0,0,0-1.4,1.47,9.33,9.33,0,0,0-.74,2.9,50.64,50.64,0,0,0,0,9.43,9.4,9.4,0,0,0,.74,2.92,3.13,3.13,0,0,0,1.4,1.47,4.88,4.88,0,0,0,2.19.44,5.17,5.17,0,0,0,2.26-.44,3.19,3.19,0,0,0,1.43-1.47,8.58,8.58,0,0,0,.76-2.92,50.64,50.64,0,0,0,0-9.43,8.52,8.52,0,0,0-.76-2.9,3.19,3.19,0,0,0-1.43-1.47A5.17,5.17,0,0,0,859.69,170.83Z" transform="translate(-151.42 -166.04)"/><path d="M885.92,166.6v27.53h-6.06V174.62c0-.51,0-1,0-1.5a8.59,8.59,0,0,1,.2-1.49l-6.55,1.67-.72-4,7-2.75Z" transform="translate(-151.42 -166.04)"/><path d="M902.17,166a12.18,12.18,0,0,1,6.28,1.4A7.77,7.77,0,0,1,911.8,172a35.06,35.06,0,0,1,0,16.79,7.77,7.77,0,0,1-3.35,4.53,14.81,14.81,0,0,1-12.57,0,7.79,7.79,0,0,1-3.33-4.53,36.09,36.09,0,0,1,0-16.79,7.79,7.79,0,0,1,3.33-4.53A12.24,12.24,0,0,1,902.17,166Zm0,4.79a5,5,0,0,0-2.2.44,3.12,3.12,0,0,0-1.39,1.47,9.06,9.06,0,0,0-.74,2.9,50.64,50.64,0,0,0,0,9.43,9.12,9.12,0,0,0,.74,2.92,3.12,3.12,0,0,0,1.39,1.47,5,5,0,0,0,2.2.44,5.15,5.15,0,0,0,2.25-.44,3.21,3.21,0,0,0,1.44-1.47,8.82,8.82,0,0,0,.76-2.92,50.64,50.64,0,0,0,0-9.43,8.75,8.75,0,0,0-.76-2.9,3.21,3.21,0,0,0-1.44-1.47A5.15,5.15,0,0,0,902.13,170.83Z" transform="translate(-151.42 -166.04)"/><path d="M927.35,166a12.2,12.2,0,0,1,6.28,1.4A7.81,7.81,0,0,1,937,172a35.06,35.06,0,0,1,0,16.79,7.81,7.81,0,0,1-3.35,4.53,14.81,14.81,0,0,1-12.57,0,7.79,7.79,0,0,1-3.33-4.53,35.74,35.74,0,0,1,0-16.79,7.79,7.79,0,0,1,3.33-4.53A12.21,12.21,0,0,1,927.35,166Zm0,4.79a5,5,0,0,0-2.2.44,3.12,3.12,0,0,0-1.39,1.47,8.8,8.8,0,0,0-.74,2.9,50.64,50.64,0,0,0,0,9.43,8.87,8.87,0,0,0,.74,2.92,3.12,3.12,0,0,0,1.39,1.47,5,5,0,0,0,2.2.44,5.15,5.15,0,0,0,2.25-.44A3.21,3.21,0,0,0,931,188a8.82,8.82,0,0,0,.76-2.92,53,53,0,0,0,0-9.43,8.75,8.75,0,0,0-.76-2.9,3.21,3.21,0,0,0-1.44-1.47A5.15,5.15,0,0,0,927.31,170.83Z" transform="translate(-151.42 -166.04)"/><path d="M953.54,166.6v27.53h-6.07V174.62c0-.51,0-1,0-1.5a9.68,9.68,0,0,1,.2-1.49l-6.54,1.67-.72-4,7-2.75Z" transform="translate(-151.42 -166.04)"/><path d="M591.06,305q23.22,0,39.83,1.19A276.06,276.06,0,0,1,661.47,310a270.28,270.28,0,0,1,28.21,6.88l-9.48,52.63q-15.18-.94-28.69-1.42t-28.21-.72q-14.7-.22-35.09-.23-18.48,0-31.29,4.5a48.67,48.67,0,0,0-22,16.12q-9.24,11.63-15.41,33.19T509,477.16q-5.68,40.79-4,63.53t13.28,31.77q11.61,9,35.8,9,33.66,0,55.71-1.18t43.38-3.09l3.32,53.58a337,337,0,0,1-47.41,9.72q-23.72,3.07-57.38,3.08-50.73,0-79.89-17.07t-38.17-54.76q-9-37.69-.47-100.28,7.11-47.88,18.49-80.13t29.4-51.21q18-19,45-27T591.06,305Z" transform="translate(-151.42 -166.04)"/><path d="M863.69,306.94q41.25,0,66.14,7.82t34.61,27q9.72,19.2,5,53.34T950,446.81Q935.28,464.36,903,467.2l-.47,2.37q37.92,3.33,50.26,26.55t6.64,63.07q-4.76,33.19-18,51.2t-37.93,24.66q-24.66,6.63-63.54,6.64-32.72,0-56.9-.24T739,640.27q-19.92-1-40.78-2.38l11.86-51.2q11.83.48,43.38.94t73.26.48q20.85,0,33.19-3.79a32,32,0,0,0,18.72-14.47q6.4-10.67,8.78-30.1,2.83-19.44,0-29.4t-13-14q-10.2-4-29.64-4.5H725.24l6.64-46.94H846.62q18-.46,28.68-4a29.79,29.79,0,0,0,16.6-13.52q5.93-9.94,8.3-28,2.37-15.64-.71-24.18T887.16,363.6q-9.25-3.08-25.84-3.08H776.21q-15.9,0-29.64,1l-2.37-50.74q18.49-1.89,36-2.6t37.69-.95Q838.08,306.94,863.69,306.94Zm-48.84,3.79-46,327.16H698.21l46-327.16Z" transform="translate(-151.42 -166.04)"/><path d="M1167.13,306q51.67,0,82.27,15.41t41,52.63q10.42,37.23.95,103.13-7.11,50.74-19,83.21t-30.34,50.26q-18.49,17.77-46.47,24.89t-66.85,7.12q-34.14,0-66.38-1.43t-61.64-3.32l35.56-53.57q17.54.95,43.15,1.66t48.36.71q19.92,0,34.38-4.51a51.37,51.37,0,0,0,24.65-16.83Q1197,553,1203.88,530.5t11.62-59q4.73-33.66,4.74-55.24t-5.45-33.43A31.21,31.21,0,0,0,1197,366.21q-12.35-4.74-32.25-4.74-14.7,0-30.82.24t-31.53.23H1074.2l-27.5-51.21q17.07-1.41,37.46-2.6t41.72-1.66Q1147.22,306,1167.13,306Zm-47.88,4.74-46,327.16h-72.54l46-327.16Z" transform="translate(-151.42 -166.04)"/><path d="M1493.82,305q23.22,0,39.83,1.19a276.06,276.06,0,0,1,30.58,3.79,270.28,270.28,0,0,1,28.21,6.88L1583,369.53q-15.18-.94-28.69-1.42t-28.21-.72q-14.7-.22-35.08-.23-18.49,0-31.3,4.5a48.67,48.67,0,0,0-22,16.12q-9.24,11.63-15.41,33.19t-10.43,56.19q-5.68,40.79-4,63.53T1421,572.46q11.61,9,35.8,9,33.66,0,55.71-1.18t43.38-3.09l3.32,53.58a337,337,0,0,1-47.41,9.72q-23.71,3.07-57.37,3.08-50.74,0-79.9-17.07t-38.17-54.76q-9-37.69-.47-100.28,7.11-47.88,18.49-80.13t29.4-51.21q18-19,45-27T1493.82,305Z" transform="translate(-151.42 -166.04)"/></svg>