<?xml version="1.0" standalone="no"?>
<!DOCTYPE svg PUBLIC "-//W3C//DTD SVG 20010904//EN"
 "http://www.w3.org/TR/2001/REC-SVG-20010904/DTD/svg10.dtd">
<svg version="1.0" xmlns="http://www.w3.org/2000/svg"
 width="509.000000pt" height="490.000000pt" viewBox="0 0 509.000000 490.000000"
 preserveAspectRatio="xMidYMid meet">
<metadata>
Created by potrace 1.16, written by Peter Selinger 2001-2019
</metadata>
<g transform="translate(0.000000,490.000000) scale(0.100000,-0.100000)"
fill="#000000" stroke="none">
<path d="M2480 3953 c-25 -14 -146 -83 -270 -153 -338 -191 -376 -212 -491
-275 l-107 -58 -6 -64 c-8 -79 3 -215 18 -225 6 -4 32 -8 59 -8 l47 0 0 -359
0 -360 -57 -25 c-126 -58 -212 -159 -255 -300 -30 -100 -22 -219 21 -311 67
-144 145 -212 305 -264 l49 -16 2 -202 3 -202 -28 -11 c-115 -48 -129 -216
-23 -281 50 -31 125 -32 175 -1 46 29 73 92 66 157 -7 58 -29 90 -78 115 l-40
21 2 202 3 202 188 3 187 2 0 -325 c0 -282 -2 -325 -15 -325 -30 0 -92 -69
-104 -116 -38 -151 127 -268 256 -181 100 67 94 221 -11 282 l-46 27 0 313 0
313 28 5 c15 3 111 6 215 7 l187 1 0 -323 -1 -323 -42 -20 c-30 -15 -48 -33
-64 -65 -55 -107 1 -223 118 -245 117 -22 219 92 188 208 -11 43 -77 117 -104
117 -22 0 -26 64 -23 365 l3 280 190 0 190 0 3 -202 2 -201 -37 -19 c-50 -25
-75 -62 -81 -123 -10 -103 53 -174 154 -174 55 0 109 27 134 68 51 81 17 197
-67 232 l-33 14 0 200 c0 198 0 201 23 209 12 5 56 22 97 38 60 22 87 40 135
88 158 157 190 367 85 564 -48 90 -123 157 -225 201 l-45 19 0 360 0 360 58 3
57 3 3 145 2 145 -42 23 c-24 13 -77 42 -118 64 -76 41 -344 192 -611 344 -81
46 -155 84 -165 84 -11 0 -39 -12 -64 -27z m138 -92 c37 -21 103 -58 147 -81
44 -23 149 -83 233 -132 84 -49 161 -92 170 -96 9 -3 68 -35 130 -70 l112 -63
0 -84 c0 -70 -3 -84 -17 -87 -9 -2 -398 -2 -865 0 l-848 2 0 84 0 84 98 57
c117 68 398 226 542 305 58 31 130 71 160 88 30 18 59 32 63 32 5 0 39 -17 75
-39z m-628 -1006 l0 -315 35 0 35 0 0 315 0 315 95 0 95 0 0 -350 0 -350 -222
0 -223 0 -3 323 c-1 177 0 334 4 350 l6 27 89 0 89 0 0 -315z m520 0 l0 -315
35 0 35 0 0 315 0 315 95 0 95 0 0 -350 0 -350 -225 0 -225 0 0 350 0 350 95
0 95 0 0 -315z m520 0 l0 -315 35 0 35 0 0 315 0 315 88 0 89 0 6 -262 c7
-313 1 -452 -20 -443 -8 3 -107 5 -219 5 l-204 0 0 350 0 350 95 0 95 0 0
-315z m362 -502 c122 -57 194 -154 219 -293 10 -57 9 -78 -5 -142 -29 -129
-100 -216 -226 -277 l-75 -36 -760 0 -760 0 -55 23 c-153 65 -242 185 -257
348 -4 48 -1 78 17 135 41 138 112 210 260 265 28 10 190 12 805 11 l770 -2
67 -32z m-1498 -1319 c37 -37 35 -86 -3 -125 -33 -32 -58 -36 -99 -15 -58 30
-65 93 -17 142 33 33 84 32 119 -2z m1412 11 c12 -8 27 -28 33 -44 23 -53 -27
-121 -89 -121 -10 0 -32 12 -49 26 -25 21 -31 33 -31 65 0 73 78 115 136 74z
m-950 -249 c25 -24 34 -43 34 -66 0 -43 -56 -100 -98 -100 -34 0 -80 32 -92
65 -13 33 6 90 37 115 39 30 79 26 119 -14z m512 -1 c15 -19 22 -39 22 -70 0
-36 -5 -47 -31 -69 -48 -41 -117 -29 -145 25 -23 46 -17 78 21 116 32 32 40
35 73 30 22 -4 46 -17 60 -32z"/>
<path d="M2154 2254 c-14 -3 -24 -15 -28 -36 -8 -40 -8 -362 0 -422 6 -42 9
-46 34 -46 16 0 30 7 34 16 3 9 6 105 6 215 l0 199 75 0 c67 0 79 -3 100 -25
49 -48 19 -105 -60 -114 -54 -7 -77 -29 -59 -59 8 -13 27 -18 80 -20 79 -3
104 -19 104 -67 0 -54 -20 -69 -97 -75 l-68 -5 -3 -32 -3 -33 74 0 c60 0 80 4
107 23 39 26 70 80 70 120 0 39 -27 93 -56 112 -24 15 -24 16 -8 47 32 62 -3
166 -65 190 -28 11 -203 20 -237 12z"/>
<path d="M2615 2253 c-22 -3 -43 -10 -47 -16 -9 -14 -10 -432 -2 -464 8 -28
58 -33 68 -7 3 9 6 105 6 215 l0 199 85 0 c83 0 86 -1 123 -34 l37 -34 0 -111
0 -111 -31 -31 c-26 -26 -43 -33 -90 -38 -57 -6 -59 -7 -59 -36 0 -29 1 -30
55 -33 67 -4 115 17 153 65 39 52 50 104 45 216 -5 88 -8 102 -34 140 -16 23
-45 49 -64 58 -36 17 -171 29 -245 22z"/>
<path d="M3180 2251 c-70 -8 -119 -38 -150 -93 -23 -39 -25 -54 -24 -158 0
-123 9 -154 56 -196 51 -47 81 -55 206 -52 l117 3 0 30 0 30 -121 5 c-83 4
-127 10 -138 19 -35 29 -46 68 -46 162 0 97 18 146 60 169 10 6 65 10 122 10
68 0 108 4 116 12 16 16 15 48 0 52 -27 9 -146 13 -198 7z"/>
<path d="M1780 2233 c-20 -10 -47 -38 -63 -65 -52 -84 -48 -279 8 -352 40 -52
87 -66 220 -66 113 0 115 0 121 24 3 14 3 30 -1 35 -4 7 -46 11 -103 11 -176
0 -203 20 -210 156 -5 97 8 144 49 179 28 23 38 25 133 25 109 0 141 11 134
46 -3 17 -14 19 -128 22 -103 2 -131 -1 -160 -15z"/>
</g>
</svg>
